<svg viewBox="0 0 1920 1080" xmlns="http://www.w3.org/2000/svg" width="1920" height="1080" preserveAspectRatio="xMidYMid slice"><defs><radialGradient id="bm11g1" cx="50%" cy="50%" r="50%"><stop offset="0%" stop-color="hsla(342.8,86.8%,46.8%,0.969)"/><stop offset="100%" stop-color="hsla(342.8,86.8%,46.8%,0.969)"/></radialGradient><filter id="bm11g2" x="-30%" y="-30%" width="160%" height="160%"><feTurbulence type="fractalNoise" baseFrequency="0.0295" numOctaves="1" result="noise"/><feDisplacementMap in="SourceGraphic" in2="noise" scale="154.9" xChannelSelector="R" yChannelSelector="G" result="disp"/><feColorMatrix in="disp" type="hueRotate" values="158.7" result="hued"/><feColorMatrix in="hued" type="saturate" values="3.66" result="sat"/><feComponentTransfer in="sat" result="ctrans"><feFuncR type="gamma" amplitude="1" exponent="0.351" offset="0"/><feFuncG type="gamma" amplitude="1" exponent="1.039" offset="0"/><feFuncB type="gamma" amplitude="1" exponent="3.495" offset="0"/></feComponentTransfer><feConvolveMatrix in="ctrans" order="3" kernelMatrix="-1 -1 -1 -1 8 -1 -1 -1 -1" preserveAlpha="true" result="conv"/></filter><linearGradient id="bm11g3" x1="38.517786462153914%" y1="1.3362684099204714%" x2="61.482213537846086%" y2="98.66373159007952%"><stop offset="0%" stop-color="hsla(342.8,86.8%,46.8%,0.441)"/><stop offset="100%" stop-color="hsla(110.3,66.3%,95.0%,0.441)"/></linearGradient><pattern id="bm11g4" x="0" y="0" width="11.577141022566213" height="11.577141022566213" patternUnits="userSpaceOnUse" patternTransform="rotate(36.4)"><line x1="0" y1="0" x2="0" y2="11.577141022566213" stroke="url(#bm11g3)" stroke-width="31.59" stroke-dasharray="23.6,9.2"/><line x1="0" y1="0" x2="11.577141022566213" y2="0" stroke="url(#bm11g3)" stroke-width="31.59" stroke-dasharray="23.6,9.2"/></pattern><filter id="bm11g5" x="-30%" y="-30%" width="160%" height="160%"><feMorphology in="SourceGraphic" operator="dilate" radius="8.9 11.8" result="morph"/><feTurbulence type="fractalNoise" baseFrequency="0.0869" numOctaves="2" result="noise"/><feDisplacementMap in="morph" in2="noise" scale="26.4" xChannelSelector="R" yChannelSelector="G" result="disp"/><feColorMatrix in="disp" type="hueRotate" values="322.8" result="hued"/><feColorMatrix in="hued" type="saturate" values="1.10" result="sat"/><feComponentTransfer in="sat" result="ctrans"><feFuncR type="gamma" amplitude="1" exponent="0.845" offset="0"/><feFuncG type="gamma" amplitude="1" exponent="1.579" offset="0"/><feFuncB type="gamma" amplitude="1" exponent="2.515" offset="0"/></feComponentTransfer></filter><radialGradient id="bm11g6" cx="50%" cy="50%" r="50%"><stop offset="0%" stop-color="hsla(308.9,10.0%,95.0%,0.598)"/><stop offset="100%" stop-color="hsla(342.8,86.8%,46.8%,0.598)"/></radialGradient><filter id="bm11g8" x="-30%" y="-30%" width="160%" height="160%"><feMorphology in="SourceGraphic" operator="erode" radius="5.4 20.2" result="morph"/><feComponentTransfer in="morph" result="ctrans"><feFuncR type="gamma" amplitude="1" exponent="2.438" offset="0"/><feFuncG type="gamma" amplitude="1" exponent="0.882" offset="0"/><feFuncB type="gamma" amplitude="1" exponent="2.339" offset="0"/></feComponentTransfer></filter></defs><rect width="1920" height="1080" fill="hsla(342.8,86.8%,46.8%,1.000)"/><g filter="url(#bm11g2)" ><g transform="translate(0.00,0.00) rotate(300.81) scale(1.947,2.408)" fill="url(#bm11g1)" stroke="hsla(308.9,10.0%,95.0%,0.930)" stroke-width="54.07" opacity="0.986" style="mix-blend-mode:difference" stroke-dasharray="16.7,0.5"><circle cx="0" cy="0" r="661.88"/></g><g transform="translate(960.00,0.00) rotate(300.81) scale(1.947,2.408)" fill="url(#bm11g1)" stroke="hsla(308.9,10.0%,95.0%,0.930)" stroke-width="54.07" opacity="0.986" style="mix-blend-mode:difference" stroke-dasharray="16.7,0.5"><circle cx="0" cy="0" r="661.88"/></g><g transform="translate(1920.00,0.00) rotate(300.81) scale(1.947,2.408)" fill="url(#bm11g1)" stroke="hsla(308.9,10.0%,95.0%,0.930)" stroke-width="54.07" opacity="0.986" style="mix-blend-mode:difference" stroke-dasharray="16.7,0.5"><circle cx="0" cy="0" r="661.88"/></g><g transform="translate(0.00,360.00) rotate(300.81) scale(1.947,2.408)" fill="url(#bm11g1)" stroke="hsla(308.9,10.0%,95.0%,0.930)" stroke-width="54.07" opacity="0.986" style="mix-blend-mode:difference" stroke-dasharray="16.7,0.5"><circle cx="0" cy="0" r="661.88"/></g><g transform="translate(960.00,360.00) rotate(300.81) scale(1.947,2.408)" fill="url(#bm11g1)" stroke="hsla(308.9,10.0%,95.0%,0.930)" stroke-width="54.07" opacity="0.986" style="mix-blend-mode:difference" stroke-dasharray="16.7,0.5"><circle cx="0" cy="0" r="661.88"/></g><g transform="translate(1920.00,360.00) rotate(300.81) scale(1.947,2.408)" fill="url(#bm11g1)" stroke="hsla(308.9,10.0%,95.0%,0.930)" stroke-width="54.07" opacity="0.986" style="mix-blend-mode:difference" stroke-dasharray="16.7,0.5"><circle cx="0" cy="0" r="661.88"/></g><g transform="translate(0.00,720.00) rotate(300.81) scale(1.947,2.408)" fill="url(#bm11g1)" stroke="hsla(308.9,10.0%,95.0%,0.930)" stroke-width="54.07" opacity="0.986" style="mix-blend-mode:difference" stroke-dasharray="16.7,0.5"><circle cx="0" cy="0" r="661.88"/></g><g transform="translate(960.00,720.00) rotate(300.81) scale(1.947,2.408)" fill="url(#bm11g1)" stroke="hsla(308.9,10.0%,95.0%,0.930)" stroke-width="54.07" opacity="0.986" style="mix-blend-mode:difference" stroke-dasharray="16.7,0.5"><circle cx="0" cy="0" r="661.88"/></g><g transform="translate(1920.00,720.00) rotate(300.81) scale(1.947,2.408)" fill="url(#bm11g1)" stroke="hsla(308.9,10.0%,95.0%,0.930)" stroke-width="54.07" opacity="0.986" style="mix-blend-mode:difference" stroke-dasharray="16.7,0.5"><circle cx="0" cy="0" r="661.88"/></g><g transform="translate(0.00,1080.00) rotate(300.81) scale(1.947,2.408)" fill="url(#bm11g1)" stroke="hsla(308.9,10.0%,95.0%,0.930)" stroke-width="54.07" opacity="0.986" style="mix-blend-mode:difference" stroke-dasharray="16.7,0.5"><circle cx="0" cy="0" r="661.88"/></g><g transform="translate(960.00,1080.00) rotate(300.81) scale(1.947,2.408)" fill="url(#bm11g1)" stroke="hsla(308.9,10.0%,95.0%,0.930)" stroke-width="54.07" opacity="0.986" style="mix-blend-mode:difference" stroke-dasharray="16.7,0.5"><circle cx="0" cy="0" r="661.88"/></g><g transform="translate(1920.00,1080.00) rotate(300.81) scale(1.947,2.408)" fill="url(#bm11g1)" stroke="hsla(308.9,10.0%,95.0%,0.930)" stroke-width="54.07" opacity="0.986" style="mix-blend-mode:difference" stroke-dasharray="16.7,0.5"><circle cx="0" cy="0" r="661.88"/></g></g><g opacity="0.844" style="mix-blend-mode:normal" filter="url(#bm11g5)" ><rect x="-1920" y="-1080" width="5760" height="3240" fill="url(#bm11g4)"/></g><g opacity="0.485" style="mix-blend-mode:overlay" filter="url(#bm11g8)" ><g><polygon points="-2071.50,-1514.91 -2071.50,-1355.44 -2209.60,-1275.71 -2347.70,-1355.44 -2347.70,-1514.91 -2209.60,-1594.64" fill="url(#bm11g6)" stroke="url(#bm11g6)" stroke-width="2.96"/><polygon points="-1795.30,-1514.91 -1795.30,-1355.44 -1933.40,-1275.71 -2071.50,-1355.44 -2071.50,-1514.91 -1933.40,-1594.64" fill="url(#bm11g6)" stroke="url(#bm11g6)" stroke-width="2.96"/><polygon points="-1519.10,-1514.91 -1519.10,-1355.44 -1657.20,-1275.71 -1795.30,-1355.44 -1795.30,-1514.91 -1657.20,-1594.64" fill="url(#bm11g6)" stroke="url(#bm11g6)" stroke-width="2.96"/><polygon points="-1242.90,-1514.91 -1242.90,-1355.44 -1381.00,-1275.71 -1519.10,-1355.44 -1519.10,-1514.91 -1381.00,-1594.64" fill="url(#bm11g6)" stroke="url(#bm11g6)" stroke-width="2.96"/><polygon points="-966.70,-1514.91 -966.70,-1355.44 -1104.80,-1275.71 -1242.90,-1355.44 -1242.90,-1514.91 -1104.80,-1594.64" fill="url(#bm11g6)" stroke="url(#bm11g6)" stroke-width="2.96"/><polygon points="-690.50,-1514.91 -690.50,-1355.44 -828.60,-1275.71 -966.70,-1355.44 -966.70,-1514.91 -828.60,-1594.64" fill="url(#bm11g6)" stroke="url(#bm11g6)" stroke-width="2.96"/><polygon points="-414.30,-1514.91 -414.30,-1355.44 -552.40,-1275.71 -690.50,-1355.44 -690.50,-1514.91 -552.40,-1594.64" fill="url(#bm11g6)" stroke="url(#bm11g6)" stroke-width="2.96"/><polygon points="-138.10,-1514.91 -138.10,-1355.44 -276.20,-1275.71 -414.30,-1355.44 -414.30,-1514.91 -276.20,-1594.64" fill="url(#bm11g6)" stroke="url(#bm11g6)" stroke-width="2.96"/><polygon points="138.10,-1514.91 138.10,-1355.44 0.00,-1275.71 -138.10,-1355.44 -138.10,-1514.91 -0.00,-1594.64" fill="url(#bm11g6)" stroke="url(#bm11g6)" stroke-width="2.96"/><polygon points="414.30,-1514.91 414.30,-1355.44 276.20,-1275.71 138.10,-1355.44 138.10,-1514.91 276.20,-1594.64" fill="url(#bm11g6)" stroke="url(#bm11g6)" stroke-width="2.96"/><polygon points="690.50,-1514.91 690.50,-1355.44 552.40,-1275.71 414.30,-1355.44 414.30,-1514.91 552.40,-1594.64" fill="url(#bm11g6)" stroke="url(#bm11g6)" stroke-width="2.96"/><polygon points="966.70,-1514.91 966.70,-1355.44 828.60,-1275.71 690.50,-1355.44 690.50,-1514.91 828.60,-1594.64" fill="url(#bm11g6)" stroke="url(#bm11g6)" stroke-width="2.96"/><polygon points="1242.90,-1514.91 1242.90,-1355.44 1104.80,-1275.71 966.70,-1355.44 966.70,-1514.91 1104.80,-1594.64" fill="url(#bm11g6)" stroke="url(#bm11g6)" stroke-width="2.96"/><polygon points="1519.10,-1514.91 1519.10,-1355.44 1381.00,-1275.71 1242.90,-1355.44 1242.90,-1514.91 1381.00,-1594.64" fill="url(#bm11g6)" stroke="url(#bm11g6)" stroke-width="2.96"/><polygon points="1795.30,-1514.91 1795.30,-1355.44 1657.20,-1275.71 1519.10,-1355.44 1519.10,-1514.91 1657.20,-1594.64" fill="url(#bm11g6)" stroke="url(#bm11g6)" stroke-width="2.96"/><polygon points="2071.50,-1514.91 2071.50,-1355.44 1933.40,-1275.71 1795.30,-1355.44 1795.30,-1514.91 1933.40,-1594.64" fill="url(#bm11g6)" stroke="url(#bm11g6)" stroke-width="2.96"/><polygon points="2347.70,-1514.91 2347.70,-1355.44 2209.60,-1275.71 2071.50,-1355.44 2071.50,-1514.91 2209.60,-1594.64" fill="url(#bm11g6)" stroke="url(#bm11g6)" stroke-width="2.96"/><polygon points="2623.89,-1514.91 2623.89,-1355.44 2485.79,-1275.71 2347.70,-1355.44 2347.70,-1514.91 2485.79,-1594.64" fill="url(#bm11g6)" stroke="url(#bm11g6)" stroke-width="2.96"/><polygon points="2900.09,-1514.91 2900.09,-1355.44 2761.99,-1275.71 2623.89,-1355.44 2623.89,-1514.91 2761.99,-1594.64" fill="url(#bm11g6)" stroke="url(#bm11g6)" stroke-width="2.96"/><polygon points="3176.29,-1514.91 3176.29,-1355.44 3038.19,-1275.71 2900.09,-1355.44 2900.09,-1514.91 3038.19,-1594.64" fill="url(#bm11g6)" stroke="url(#bm11g6)" stroke-width="2.96"/><polygon points="3452.49,-1514.91 3452.49,-1355.44 3314.39,-1275.71 3176.29,-1355.44 3176.29,-1514.91 3314.39,-1594.64" fill="url(#bm11g6)" stroke="url(#bm11g6)" stroke-width="2.96"/><polygon points="3728.69,-1514.91 3728.69,-1355.44 3590.59,-1275.71 3452.49,-1355.44 3452.49,-1514.91 3590.59,-1594.64" fill="url(#bm11g6)" stroke="url(#bm11g6)" stroke-width="2.96"/><polygon points="4004.89,-1514.91 4004.89,-1355.44 3866.79,-1275.71 3728.69,-1355.44 3728.69,-1514.91 3866.79,-1594.64" fill="url(#bm11g6)" stroke="url(#bm11g6)" stroke-width="2.96"/><polygon points="-1933.40,-1275.71 -1933.40,-1116.25 -2071.50,-1036.51 -2209.60,-1116.25 -2209.60,-1275.71 -2071.50,-1355.44" fill="url(#bm11g6)" stroke="url(#bm11g6)" stroke-width="2.96"/><polygon points="-1657.20,-1275.71 -1657.20,-1116.25 -1795.30,-1036.51 -1933.40,-1116.25 -1933.40,-1275.71 -1795.30,-1355.44" fill="url(#bm11g6)" stroke="url(#bm11g6)" stroke-width="2.96"/><polygon points="-1381.00,-1275.71 -1381.00,-1116.25 -1519.10,-1036.51 -1657.20,-1116.25 -1657.20,-1275.71 -1519.10,-1355.44" fill="url(#bm11g6)" stroke="url(#bm11g6)" stroke-width="2.96"/><polygon points="-1104.80,-1275.71 -1104.80,-1116.25 -1242.90,-1036.51 -1381.00,-1116.25 -1381.00,-1275.71 -1242.90,-1355.44" fill="url(#bm11g6)" stroke="url(#bm11g6)" stroke-width="2.96"/><polygon points="-828.60,-1275.71 -828.60,-1116.25 -966.70,-1036.51 -1104.80,-1116.25 -1104.80,-1275.71 -966.70,-1355.44" fill="url(#bm11g6)" stroke="url(#bm11g6)" stroke-width="2.96"/><polygon points="-552.40,-1275.71 -552.40,-1116.25 -690.50,-1036.51 -828.60,-1116.25 -828.60,-1275.71 -690.50,-1355.44" fill="url(#bm11g6)" stroke="url(#bm11g6)" stroke-width="2.96"/><polygon points="-276.20,-1275.71 -276.20,-1116.25 -414.30,-1036.51 -552.40,-1116.25 -552.40,-1275.71 -414.30,-1355.44" fill="url(#bm11g6)" stroke="url(#bm11g6)" stroke-width="2.96"/><polygon points="0.00,-1275.71 0.00,-1116.25 -138.10,-1036.51 -276.20,-1116.25 -276.20,-1275.71 -138.10,-1355.44" fill="url(#bm11g6)" stroke="url(#bm11g6)" stroke-width="2.96"/><polygon points="276.20,-1275.71 276.20,-1116.25 138.10,-1036.51 0.00,-1116.25 0.00,-1275.71 138.10,-1355.44" fill="url(#bm11g6)" stroke="url(#bm11g6)" stroke-width="2.96"/><polygon points="552.40,-1275.71 552.40,-1116.25 414.30,-1036.51 276.20,-1116.25 276.20,-1275.71 414.30,-1355.44" fill="url(#bm11g6)" stroke="url(#bm11g6)" stroke-width="2.96"/><polygon points="828.60,-1275.71 828.60,-1116.25 690.50,-1036.51 552.40,-1116.25 552.40,-1275.71 690.50,-1355.44" fill="url(#bm11g6)" stroke="url(#bm11g6)" stroke-width="2.96"/><polygon points="1104.80,-1275.71 1104.80,-1116.25 966.70,-1036.51 828.60,-1116.25 828.60,-1275.71 966.70,-1355.44" fill="url(#bm11g6)" stroke="url(#bm11g6)" stroke-width="2.96"/><polygon points="1381.00,-1275.71 1381.00,-1116.25 1242.90,-1036.51 1104.80,-1116.25 1104.80,-1275.71 1242.90,-1355.44" fill="url(#bm11g6)" stroke="url(#bm11g6)" stroke-width="2.96"/><polygon points="1657.20,-1275.71 1657.20,-1116.25 1519.10,-1036.51 1381.00,-1116.25 1381.00,-1275.71 1519.10,-1355.44" fill="url(#bm11g6)" stroke="url(#bm11g6)" stroke-width="2.96"/><polygon points="1933.40,-1275.71 1933.40,-1116.25 1795.30,-1036.51 1657.20,-1116.25 1657.20,-1275.71 1795.30,-1355.44" fill="url(#bm11g6)" stroke="url(#bm11g6)" stroke-width="2.96"/><polygon points="2209.60,-1275.71 2209.60,-1116.25 2071.50,-1036.51 1933.40,-1116.25 1933.40,-1275.71 2071.50,-1355.44" fill="url(#bm11g6)" stroke="url(#bm11g6)" stroke-width="2.96"/><polygon points="2485.79,-1275.71 2485.79,-1116.25 2347.70,-1036.51 2209.60,-1116.25 2209.60,-1275.71 2347.70,-1355.44" fill="url(#bm11g6)" stroke="url(#bm11g6)" stroke-width="2.96"/><polygon points="2761.99,-1275.71 2761.99,-1116.25 2623.89,-1036.51 2485.79,-1116.25 2485.79,-1275.71 2623.89,-1355.44" fill="url(#bm11g6)" stroke="url(#bm11g6)" stroke-width="2.96"/><polygon points="3038.19,-1275.71 3038.19,-1116.25 2900.09,-1036.51 2761.99,-1116.25 2761.99,-1275.71 2900.09,-1355.44" fill="url(#bm11g6)" stroke="url(#bm11g6)" stroke-width="2.96"/><polygon points="3314.39,-1275.71 3314.39,-1116.25 3176.29,-1036.51 3038.19,-1116.25 3038.19,-1275.71 3176.29,-1355.44" fill="url(#bm11g6)" stroke="url(#bm11g6)" stroke-width="2.96"/><polygon points="3590.59,-1275.71 3590.59,-1116.25 3452.49,-1036.51 3314.39,-1116.25 3314.39,-1275.71 3452.49,-1355.44" fill="url(#bm11g6)" stroke="url(#bm11g6)" stroke-width="2.96"/><polygon points="3866.79,-1275.71 3866.79,-1116.25 3728.69,-1036.51 3590.59,-1116.25 3590.59,-1275.71 3728.69,-1355.44" fill="url(#bm11g6)" stroke="url(#bm11g6)" stroke-width="2.96"/><polygon points="4142.99,-1275.71 4142.99,-1116.25 4004.89,-1036.51 3866.79,-1116.25 3866.79,-1275.71 4004.89,-1355.44" fill="url(#bm11g6)" stroke="url(#bm11g6)" stroke-width="2.96"/><polygon points="-2071.50,-1036.51 -2071.50,-877.05 -2209.60,-797.32 -2347.70,-877.05 -2347.70,-1036.51 -2209.60,-1116.25" fill="url(#bm11g6)" stroke="url(#bm11g6)" stroke-width="2.96"/><polygon points="-1795.30,-1036.51 -1795.30,-877.05 -1933.40,-797.32 -2071.50,-877.05 -2071.50,-1036.51 -1933.40,-1116.25" fill="url(#bm11g6)" stroke="url(#bm11g6)" stroke-width="2.96"/><polygon points="-1519.10,-1036.51 -1519.10,-877.05 -1657.20,-797.32 -1795.30,-877.05 -1795.30,-1036.51 -1657.20,-1116.25" fill="url(#bm11g6)" stroke="url(#bm11g6)" stroke-width="2.96"/><polygon points="-1242.90,-1036.51 -1242.90,-877.05 -1381.00,-797.32 -1519.10,-877.05 -1519.10,-1036.51 -1381.00,-1116.25" fill="url(#bm11g6)" stroke="url(#bm11g6)" stroke-width="2.96"/><polygon points="-966.70,-1036.51 -966.70,-877.05 -1104.80,-797.32 -1242.90,-877.05 -1242.90,-1036.51 -1104.80,-1116.25" fill="url(#bm11g6)" stroke="url(#bm11g6)" stroke-width="2.96"/><polygon points="-690.50,-1036.51 -690.50,-877.05 -828.60,-797.32 -966.70,-877.05 -966.70,-1036.51 -828.60,-1116.25" fill="url(#bm11g6)" stroke="url(#bm11g6)" stroke-width="2.96"/><polygon points="-414.30,-1036.51 -414.30,-877.05 -552.40,-797.32 -690.50,-877.05 -690.50,-1036.51 -552.40,-1116.25" fill="url(#bm11g6)" stroke="url(#bm11g6)" stroke-width="2.96"/><polygon points="-138.10,-1036.51 -138.10,-877.05 -276.20,-797.32 -414.30,-877.05 -414.30,-1036.51 -276.20,-1116.25" fill="url(#bm11g6)" stroke="url(#bm11g6)" stroke-width="2.96"/><polygon points="138.10,-1036.51 138.10,-877.05 0.00,-797.32 -138.10,-877.05 -138.10,-1036.51 -0.00,-1116.25" fill="url(#bm11g6)" stroke="url(#bm11g6)" stroke-width="2.96"/><polygon points="414.30,-1036.51 414.30,-877.05 276.20,-797.32 138.10,-877.05 138.10,-1036.51 276.20,-1116.25" fill="url(#bm11g6)" stroke="url(#bm11g6)" stroke-width="2.96"/><polygon points="690.50,-1036.51 690.50,-877.05 552.40,-797.32 414.30,-877.05 414.30,-1036.51 552.40,-1116.25" fill="url(#bm11g6)" stroke="url(#bm11g6)" stroke-width="2.96"/><polygon points="966.70,-1036.51 966.70,-877.05 828.60,-797.32 690.50,-877.05 690.50,-1036.51 828.60,-1116.25" fill="url(#bm11g6)" stroke="url(#bm11g6)" stroke-width="2.96"/><polygon points="1242.90,-1036.51 1242.90,-877.05 1104.80,-797.32 966.70,-877.05 966.70,-1036.51 1104.80,-1116.25" fill="url(#bm11g6)" stroke="url(#bm11g6)" stroke-width="2.96"/><polygon points="1519.10,-1036.51 1519.10,-877.05 1381.00,-797.32 1242.90,-877.05 1242.90,-1036.51 1381.00,-1116.25" fill="url(#bm11g6)" stroke="url(#bm11g6)" stroke-width="2.96"/><polygon points="1795.30,-1036.51 1795.30,-877.05 1657.20,-797.32 1519.10,-877.05 1519.10,-1036.51 1657.20,-1116.25" fill="url(#bm11g6)" stroke="url(#bm11g6)" stroke-width="2.96"/><polygon points="2071.50,-1036.51 2071.50,-877.05 1933.40,-797.32 1795.30,-877.05 1795.30,-1036.51 1933.40,-1116.25" fill="url(#bm11g6)" stroke="url(#bm11g6)" stroke-width="2.96"/><polygon points="2347.70,-1036.51 2347.70,-877.05 2209.60,-797.32 2071.50,-877.05 2071.50,-1036.51 2209.60,-1116.25" fill="url(#bm11g6)" stroke="url(#bm11g6)" stroke-width="2.96"/><polygon points="2623.89,-1036.51 2623.89,-877.05 2485.79,-797.32 2347.70,-877.05 2347.70,-1036.51 2485.79,-1116.25" fill="url(#bm11g6)" stroke="url(#bm11g6)" stroke-width="2.96"/><polygon points="2900.09,-1036.51 2900.09,-877.05 2761.99,-797.32 2623.89,-877.05 2623.89,-1036.51 2761.99,-1116.25" fill="url(#bm11g6)" stroke="url(#bm11g6)" stroke-width="2.96"/><polygon points="3176.29,-1036.51 3176.29,-877.05 3038.19,-797.32 2900.09,-877.05 2900.09,-1036.51 3038.19,-1116.25" fill="url(#bm11g6)" stroke="url(#bm11g6)" stroke-width="2.96"/><polygon points="3452.49,-1036.51 3452.49,-877.05 3314.39,-797.32 3176.29,-877.05 3176.29,-1036.51 3314.39,-1116.25" fill="url(#bm11g6)" stroke="url(#bm11g6)" stroke-width="2.96"/><polygon points="3728.69,-1036.51 3728.69,-877.05 3590.59,-797.32 3452.49,-877.05 3452.49,-1036.51 3590.59,-1116.25" fill="url(#bm11g6)" stroke="url(#bm11g6)" stroke-width="2.96"/><polygon points="4004.89,-1036.51 4004.89,-877.05 3866.79,-797.32 3728.69,-877.05 3728.69,-1036.51 3866.79,-1116.25" fill="url(#bm11g6)" stroke="url(#bm11g6)" stroke-width="2.96"/><polygon points="-1933.40,-797.32 -1933.40,-637.86 -2071.50,-558.12 -2209.60,-637.86 -2209.60,-797.32 -2071.50,-877.05" fill="url(#bm11g6)" stroke="url(#bm11g6)" stroke-width="2.96"/><polygon points="-1657.20,-797.32 -1657.20,-637.86 -1795.30,-558.12 -1933.40,-637.86 -1933.40,-797.32 -1795.30,-877.05" fill="url(#bm11g6)" stroke="url(#bm11g6)" stroke-width="2.96"/><polygon points="-1381.00,-797.32 -1381.00,-637.86 -1519.10,-558.12 -1657.20,-637.86 -1657.20,-797.32 -1519.10,-877.05" fill="url(#bm11g6)" stroke="url(#bm11g6)" stroke-width="2.96"/><polygon points="-1104.80,-797.32 -1104.80,-637.86 -1242.90,-558.12 -1381.00,-637.86 -1381.00,-797.32 -1242.90,-877.05" fill="url(#bm11g6)" stroke="url(#bm11g6)" stroke-width="2.96"/><polygon points="-828.60,-797.32 -828.60,-637.86 -966.70,-558.12 -1104.80,-637.86 -1104.80,-797.32 -966.70,-877.05" fill="url(#bm11g6)" stroke="url(#bm11g6)" stroke-width="2.96"/><polygon points="-552.40,-797.32 -552.40,-637.86 -690.50,-558.12 -828.60,-637.86 -828.60,-797.32 -690.50,-877.05" fill="url(#bm11g6)" stroke="url(#bm11g6)" stroke-width="2.96"/><polygon points="-276.20,-797.32 -276.20,-637.86 -414.30,-558.12 -552.40,-637.86 -552.40,-797.32 -414.30,-877.05" fill="url(#bm11g6)" stroke="url(#bm11g6)" stroke-width="2.96"/><polygon points="0.00,-797.32 0.00,-637.86 -138.10,-558.12 -276.20,-637.86 -276.20,-797.32 -138.10,-877.05" fill="url(#bm11g6)" stroke="url(#bm11g6)" stroke-width="2.96"/><polygon points="276.20,-797.32 276.20,-637.86 138.10,-558.12 0.00,-637.86 0.00,-797.32 138.10,-877.05" fill="url(#bm11g6)" stroke="url(#bm11g6)" stroke-width="2.96"/><polygon points="552.40,-797.32 552.40,-637.86 414.30,-558.12 276.20,-637.86 276.20,-797.32 414.30,-877.05" fill="url(#bm11g6)" stroke="url(#bm11g6)" stroke-width="2.96"/><polygon points="828.60,-797.32 828.60,-637.86 690.50,-558.12 552.40,-637.86 552.40,-797.32 690.50,-877.05" fill="url(#bm11g6)" stroke="url(#bm11g6)" stroke-width="2.96"/><polygon points="1104.80,-797.32 1104.80,-637.86 966.70,-558.12 828.60,-637.86 828.60,-797.32 966.70,-877.05" fill="url(#bm11g6)" stroke="url(#bm11g6)" stroke-width="2.96"/><polygon points="1381.00,-797.32 1381.00,-637.86 1242.90,-558.12 1104.80,-637.86 1104.80,-797.32 1242.90,-877.05" fill="url(#bm11g6)" stroke="url(#bm11g6)" stroke-width="2.96"/><polygon points="1657.20,-797.32 1657.20,-637.86 1519.10,-558.12 1381.00,-637.86 1381.00,-797.32 1519.10,-877.05" fill="url(#bm11g6)" stroke="url(#bm11g6)" stroke-width="2.96"/><polygon points="1933.40,-797.32 1933.40,-637.86 1795.30,-558.12 1657.20,-637.86 1657.20,-797.32 1795.30,-877.05" fill="url(#bm11g6)" stroke="url(#bm11g6)" stroke-width="2.96"/><polygon points="2209.60,-797.32 2209.60,-637.86 2071.50,-558.12 1933.40,-637.86 1933.40,-797.32 2071.50,-877.05" fill="url(#bm11g6)" stroke="url(#bm11g6)" stroke-width="2.96"/><polygon points="2485.79,-797.32 2485.79,-637.86 2347.70,-558.12 2209.60,-637.86 2209.60,-797.32 2347.70,-877.05" fill="url(#bm11g6)" stroke="url(#bm11g6)" stroke-width="2.96"/><polygon points="2761.99,-797.32 2761.99,-637.86 2623.89,-558.12 2485.79,-637.86 2485.79,-797.32 2623.89,-877.05" fill="url(#bm11g6)" stroke="url(#bm11g6)" stroke-width="2.96"/><polygon points="3038.19,-797.32 3038.19,-637.86 2900.09,-558.12 2761.99,-637.86 2761.99,-797.32 2900.09,-877.05" fill="url(#bm11g6)" stroke="url(#bm11g6)" stroke-width="2.96"/><polygon points="3314.39,-797.32 3314.39,-637.86 3176.29,-558.12 3038.19,-637.86 3038.19,-797.32 3176.29,-877.05" fill="url(#bm11g6)" stroke="url(#bm11g6)" stroke-width="2.96"/><polygon points="3590.59,-797.32 3590.59,-637.86 3452.49,-558.12 3314.39,-637.86 3314.39,-797.32 3452.49,-877.05" fill="url(#bm11g6)" stroke="url(#bm11g6)" stroke-width="2.96"/><polygon points="3866.79,-797.32 3866.79,-637.86 3728.69,-558.12 3590.59,-637.86 3590.59,-797.32 3728.69,-877.05" fill="url(#bm11g6)" stroke="url(#bm11g6)" stroke-width="2.96"/><polygon points="4142.99,-797.32 4142.99,-637.86 4004.89,-558.12 3866.79,-637.86 3866.79,-797.32 4004.89,-877.05" fill="url(#bm11g6)" stroke="url(#bm11g6)" stroke-width="2.96"/><polygon points="-2071.50,-558.12 -2071.50,-398.66 -2209.60,-318.93 -2347.70,-398.66 -2347.70,-558.12 -2209.60,-637.86" fill="url(#bm11g6)" stroke="url(#bm11g6)" stroke-width="2.96"/><polygon points="-1795.30,-558.12 -1795.30,-398.66 -1933.40,-318.93 -2071.50,-398.66 -2071.50,-558.12 -1933.40,-637.86" fill="url(#bm11g6)" stroke="url(#bm11g6)" stroke-width="2.96"/><polygon points="-1519.10,-558.12 -1519.10,-398.66 -1657.20,-318.93 -1795.30,-398.66 -1795.30,-558.12 -1657.20,-637.86" fill="url(#bm11g6)" stroke="url(#bm11g6)" stroke-width="2.96"/><polygon points="-1242.90,-558.12 -1242.90,-398.66 -1381.00,-318.93 -1519.10,-398.66 -1519.10,-558.12 -1381.00,-637.86" fill="url(#bm11g6)" stroke="url(#bm11g6)" stroke-width="2.96"/><polygon points="-966.70,-558.12 -966.70,-398.66 -1104.80,-318.93 -1242.90,-398.66 -1242.90,-558.12 -1104.80,-637.86" fill="url(#bm11g6)" stroke="url(#bm11g6)" stroke-width="2.96"/><polygon points="-690.50,-558.12 -690.50,-398.66 -828.60,-318.93 -966.70,-398.66 -966.70,-558.12 -828.60,-637.86" fill="url(#bm11g6)" stroke="url(#bm11g6)" stroke-width="2.96"/><polygon points="-414.30,-558.12 -414.30,-398.66 -552.40,-318.93 -690.50,-398.66 -690.50,-558.12 -552.40,-637.86" fill="url(#bm11g6)" stroke="url(#bm11g6)" stroke-width="2.96"/><polygon points="-138.10,-558.12 -138.10,-398.66 -276.20,-318.93 -414.30,-398.66 -414.30,-558.12 -276.20,-637.86" fill="url(#bm11g6)" stroke="url(#bm11g6)" stroke-width="2.96"/><polygon points="138.10,-558.12 138.10,-398.66 0.00,-318.93 -138.10,-398.66 -138.10,-558.12 -0.00,-637.86" fill="url(#bm11g6)" stroke="url(#bm11g6)" stroke-width="2.96"/><polygon points="414.30,-558.12 414.30,-398.66 276.20,-318.93 138.10,-398.66 138.10,-558.12 276.20,-637.86" fill="url(#bm11g6)" stroke="url(#bm11g6)" stroke-width="2.96"/><polygon points="690.50,-558.12 690.50,-398.66 552.40,-318.93 414.30,-398.66 414.30,-558.12 552.40,-637.86" fill="url(#bm11g6)" stroke="url(#bm11g6)" stroke-width="2.96"/><polygon points="966.70,-558.12 966.70,-398.66 828.60,-318.93 690.50,-398.66 690.50,-558.12 828.60,-637.86" fill="url(#bm11g6)" stroke="url(#bm11g6)" stroke-width="2.96"/><polygon points="1242.90,-558.12 1242.90,-398.66 1104.80,-318.93 966.70,-398.66 966.70,-558.12 1104.80,-637.86" fill="url(#bm11g6)" stroke="url(#bm11g6)" stroke-width="2.96"/><polygon points="1519.10,-558.12 1519.10,-398.66 1381.00,-318.93 1242.90,-398.66 1242.90,-558.12 1381.00,-637.86" fill="url(#bm11g6)" stroke="url(#bm11g6)" stroke-width="2.96"/><polygon points="1795.30,-558.12 1795.30,-398.66 1657.20,-318.93 1519.10,-398.66 1519.10,-558.12 1657.20,-637.86" fill="url(#bm11g6)" stroke="url(#bm11g6)" stroke-width="2.96"/><polygon points="2071.50,-558.12 2071.50,-398.66 1933.40,-318.93 1795.30,-398.66 1795.30,-558.12 1933.40,-637.86" fill="url(#bm11g6)" stroke="url(#bm11g6)" stroke-width="2.96"/><polygon points="2347.70,-558.12 2347.70,-398.66 2209.60,-318.93 2071.50,-398.66 2071.50,-558.12 2209.60,-637.86" fill="url(#bm11g6)" stroke="url(#bm11g6)" stroke-width="2.96"/><polygon points="2623.89,-558.12 2623.89,-398.66 2485.79,-318.93 2347.70,-398.66 2347.70,-558.12 2485.79,-637.86" fill="url(#bm11g6)" stroke="url(#bm11g6)" stroke-width="2.96"/><polygon points="2900.09,-558.12 2900.09,-398.66 2761.99,-318.93 2623.89,-398.66 2623.89,-558.12 2761.99,-637.86" fill="url(#bm11g6)" stroke="url(#bm11g6)" stroke-width="2.96"/><polygon points="3176.29,-558.12 3176.29,-398.66 3038.19,-318.93 2900.09,-398.66 2900.09,-558.12 3038.19,-637.86" fill="url(#bm11g6)" stroke="url(#bm11g6)" stroke-width="2.96"/><polygon points="3452.49,-558.12 3452.49,-398.66 3314.39,-318.93 3176.29,-398.66 3176.29,-558.12 3314.39,-637.86" fill="url(#bm11g6)" stroke="url(#bm11g6)" stroke-width="2.96"/><polygon points="3728.69,-558.12 3728.69,-398.66 3590.59,-318.93 3452.49,-398.66 3452.49,-558.12 3590.59,-637.86" fill="url(#bm11g6)" stroke="url(#bm11g6)" stroke-width="2.96"/><polygon points="4004.89,-558.12 4004.89,-398.66 3866.79,-318.93 3728.69,-398.66 3728.69,-558.12 3866.79,-637.86" fill="url(#bm11g6)" stroke="url(#bm11g6)" stroke-width="2.96"/><polygon points="-1933.40,-318.93 -1933.40,-159.46 -2071.50,-79.73 -2209.60,-159.46 -2209.60,-318.93 -2071.50,-398.66" fill="url(#bm11g6)" stroke="url(#bm11g6)" stroke-width="2.96"/><polygon points="-1657.20,-318.93 -1657.20,-159.46 -1795.30,-79.73 -1933.40,-159.46 -1933.40,-318.93 -1795.30,-398.66" fill="url(#bm11g6)" stroke="url(#bm11g6)" stroke-width="2.96"/><polygon points="-1381.00,-318.93 -1381.00,-159.46 -1519.10,-79.73 -1657.20,-159.46 -1657.20,-318.93 -1519.10,-398.66" fill="url(#bm11g6)" stroke="url(#bm11g6)" stroke-width="2.96"/><polygon points="-1104.80,-318.93 -1104.80,-159.46 -1242.90,-79.73 -1381.00,-159.46 -1381.00,-318.93 -1242.90,-398.66" fill="url(#bm11g6)" stroke="url(#bm11g6)" stroke-width="2.96"/><polygon points="-828.60,-318.93 -828.60,-159.46 -966.70,-79.73 -1104.80,-159.46 -1104.80,-318.93 -966.70,-398.66" fill="url(#bm11g6)" stroke="url(#bm11g6)" stroke-width="2.96"/><polygon points="-552.40,-318.93 -552.40,-159.46 -690.50,-79.73 -828.60,-159.46 -828.60,-318.93 -690.50,-398.66" fill="url(#bm11g6)" stroke="url(#bm11g6)" stroke-width="2.96"/><polygon points="-276.20,-318.93 -276.20,-159.46 -414.30,-79.73 -552.40,-159.46 -552.40,-318.93 -414.30,-398.66" fill="url(#bm11g6)" stroke="url(#bm11g6)" stroke-width="2.96"/><polygon points="0.00,-318.93 0.00,-159.46 -138.10,-79.73 -276.20,-159.46 -276.20,-318.93 -138.10,-398.66" fill="url(#bm11g6)" stroke="url(#bm11g6)" stroke-width="2.96"/><polygon points="276.20,-318.93 276.20,-159.46 138.10,-79.73 0.00,-159.46 0.00,-318.93 138.10,-398.66" fill="url(#bm11g6)" stroke="url(#bm11g6)" stroke-width="2.96"/><polygon points="552.40,-318.93 552.40,-159.46 414.30,-79.73 276.20,-159.46 276.20,-318.93 414.30,-398.66" fill="url(#bm11g6)" stroke="url(#bm11g6)" stroke-width="2.96"/><polygon points="828.60,-318.93 828.60,-159.46 690.50,-79.73 552.40,-159.46 552.40,-318.93 690.50,-398.66" fill="url(#bm11g6)" stroke="url(#bm11g6)" stroke-width="2.96"/><polygon points="1104.80,-318.93 1104.80,-159.46 966.70,-79.73 828.60,-159.46 828.60,-318.93 966.70,-398.66" fill="url(#bm11g6)" stroke="url(#bm11g6)" stroke-width="2.96"/><polygon points="1381.00,-318.93 1381.00,-159.46 1242.90,-79.73 1104.80,-159.46 1104.80,-318.93 1242.90,-398.66" fill="url(#bm11g6)" stroke="url(#bm11g6)" stroke-width="2.96"/><polygon points="1657.20,-318.93 1657.20,-159.46 1519.10,-79.73 1381.00,-159.46 1381.00,-318.93 1519.10,-398.66" fill="url(#bm11g6)" stroke="url(#bm11g6)" stroke-width="2.96"/><polygon points="1933.40,-318.93 1933.40,-159.46 1795.30,-79.73 1657.20,-159.46 1657.20,-318.93 1795.30,-398.66" fill="url(#bm11g6)" stroke="url(#bm11g6)" stroke-width="2.96"/><polygon points="2209.60,-318.93 2209.60,-159.46 2071.50,-79.73 1933.40,-159.46 1933.40,-318.93 2071.50,-398.66" fill="url(#bm11g6)" stroke="url(#bm11g6)" stroke-width="2.96"/><polygon points="2485.79,-318.93 2485.79,-159.46 2347.70,-79.73 2209.60,-159.46 2209.60,-318.93 2347.70,-398.66" fill="url(#bm11g6)" stroke="url(#bm11g6)" stroke-width="2.96"/><polygon points="2761.99,-318.93 2761.99,-159.46 2623.89,-79.73 2485.79,-159.46 2485.79,-318.93 2623.89,-398.66" fill="url(#bm11g6)" stroke="url(#bm11g6)" stroke-width="2.96"/><polygon points="3038.19,-318.93 3038.19,-159.46 2900.09,-79.73 2761.99,-159.46 2761.99,-318.93 2900.09,-398.66" fill="url(#bm11g6)" stroke="url(#bm11g6)" stroke-width="2.96"/><polygon points="3314.39,-318.93 3314.39,-159.46 3176.29,-79.73 3038.19,-159.46 3038.19,-318.93 3176.29,-398.66" fill="url(#bm11g6)" stroke="url(#bm11g6)" stroke-width="2.96"/><polygon points="3590.59,-318.93 3590.59,-159.46 3452.49,-79.73 3314.39,-159.46 3314.39,-318.93 3452.49,-398.66" fill="url(#bm11g6)" stroke="url(#bm11g6)" stroke-width="2.96"/><polygon points="3866.79,-318.93 3866.79,-159.46 3728.69,-79.73 3590.59,-159.46 3590.59,-318.93 3728.69,-398.66" fill="url(#bm11g6)" stroke="url(#bm11g6)" stroke-width="2.96"/><polygon points="4142.99,-318.93 4142.99,-159.46 4004.89,-79.73 3866.79,-159.46 3866.79,-318.93 4004.89,-398.66" fill="url(#bm11g6)" stroke="url(#bm11g6)" stroke-width="2.96"/><polygon points="-2071.50,-79.73 -2071.50,79.73 -2209.60,159.46 -2347.70,79.73 -2347.70,-79.73 -2209.60,-159.46" fill="url(#bm11g6)" stroke="url(#bm11g6)" stroke-width="2.96"/><polygon points="-1795.30,-79.73 -1795.30,79.73 -1933.40,159.46 -2071.50,79.73 -2071.50,-79.73 -1933.40,-159.46" fill="url(#bm11g6)" stroke="url(#bm11g6)" stroke-width="2.96"/><polygon points="-1519.10,-79.73 -1519.10,79.73 -1657.20,159.46 -1795.30,79.73 -1795.30,-79.73 -1657.20,-159.46" fill="url(#bm11g6)" stroke="url(#bm11g6)" stroke-width="2.96"/><polygon points="-1242.90,-79.73 -1242.90,79.73 -1381.00,159.46 -1519.10,79.73 -1519.10,-79.73 -1381.00,-159.46" fill="url(#bm11g6)" stroke="url(#bm11g6)" stroke-width="2.96"/><polygon points="-966.70,-79.73 -966.70,79.73 -1104.80,159.46 -1242.90,79.73 -1242.90,-79.73 -1104.80,-159.46" fill="url(#bm11g6)" stroke="url(#bm11g6)" stroke-width="2.96"/><polygon points="-690.50,-79.73 -690.50,79.73 -828.60,159.46 -966.70,79.73 -966.70,-79.73 -828.60,-159.46" fill="url(#bm11g6)" stroke="url(#bm11g6)" stroke-width="2.96"/><polygon points="-414.30,-79.73 -414.30,79.73 -552.40,159.46 -690.50,79.73 -690.50,-79.73 -552.40,-159.46" fill="url(#bm11g6)" stroke="url(#bm11g6)" stroke-width="2.96"/><polygon points="-138.10,-79.73 -138.10,79.73 -276.20,159.46 -414.30,79.73 -414.30,-79.73 -276.20,-159.46" fill="url(#bm11g6)" stroke="url(#bm11g6)" stroke-width="2.96"/><polygon points="138.10,-79.73 138.10,79.73 0.00,159.46 -138.10,79.73 -138.10,-79.73 -0.00,-159.46" fill="url(#bm11g6)" stroke="url(#bm11g6)" stroke-width="2.96"/><polygon points="414.30,-79.73 414.30,79.73 276.20,159.46 138.10,79.73 138.10,-79.73 276.20,-159.46" fill="url(#bm11g6)" stroke="url(#bm11g6)" stroke-width="2.96"/><polygon points="690.50,-79.73 690.50,79.73 552.40,159.46 414.30,79.73 414.30,-79.73 552.40,-159.46" fill="url(#bm11g6)" stroke="url(#bm11g6)" stroke-width="2.96"/><polygon points="966.70,-79.73 966.70,79.73 828.60,159.46 690.50,79.73 690.50,-79.73 828.60,-159.46" fill="url(#bm11g6)" stroke="url(#bm11g6)" stroke-width="2.96"/><polygon points="1242.90,-79.73 1242.90,79.73 1104.80,159.46 966.70,79.73 966.70,-79.73 1104.80,-159.46" fill="url(#bm11g6)" stroke="url(#bm11g6)" stroke-width="2.96"/><polygon points="1519.10,-79.73 1519.10,79.73 1381.00,159.46 1242.90,79.73 1242.90,-79.73 1381.00,-159.46" fill="url(#bm11g6)" stroke="url(#bm11g6)" stroke-width="2.96"/><polygon points="1795.30,-79.73 1795.30,79.73 1657.20,159.46 1519.10,79.73 1519.10,-79.73 1657.20,-159.46" fill="url(#bm11g6)" stroke="url(#bm11g6)" stroke-width="2.96"/><polygon points="2071.50,-79.73 2071.50,79.73 1933.40,159.46 1795.30,79.73 1795.30,-79.73 1933.40,-159.46" fill="url(#bm11g6)" stroke="url(#bm11g6)" stroke-width="2.96"/><polygon points="2347.70,-79.73 2347.70,79.73 2209.60,159.46 2071.50,79.73 2071.50,-79.73 2209.60,-159.46" fill="url(#bm11g6)" stroke="url(#bm11g6)" stroke-width="2.96"/><polygon points="2623.89,-79.73 2623.89,79.73 2485.79,159.46 2347.70,79.73 2347.70,-79.73 2485.79,-159.46" fill="url(#bm11g6)" stroke="url(#bm11g6)" stroke-width="2.96"/><polygon points="2900.09,-79.73 2900.09,79.73 2761.99,159.46 2623.89,79.73 2623.89,-79.73 2761.99,-159.46" fill="url(#bm11g6)" stroke="url(#bm11g6)" stroke-width="2.96"/><polygon points="3176.29,-79.73 3176.29,79.73 3038.19,159.46 2900.09,79.73 2900.09,-79.73 3038.19,-159.46" fill="url(#bm11g6)" stroke="url(#bm11g6)" stroke-width="2.96"/><polygon points="3452.49,-79.73 3452.49,79.73 3314.39,159.46 3176.29,79.73 3176.29,-79.73 3314.39,-159.46" fill="url(#bm11g6)" stroke="url(#bm11g6)" stroke-width="2.96"/><polygon points="3728.69,-79.73 3728.69,79.73 3590.59,159.46 3452.49,79.73 3452.49,-79.73 3590.59,-159.46" fill="url(#bm11g6)" stroke="url(#bm11g6)" stroke-width="2.96"/><polygon points="4004.89,-79.73 4004.89,79.73 3866.79,159.46 3728.69,79.73 3728.69,-79.73 3866.79,-159.46" fill="url(#bm11g6)" stroke="url(#bm11g6)" stroke-width="2.96"/><polygon points="-1933.40,159.46 -1933.40,318.93 -2071.50,398.66 -2209.60,318.93 -2209.60,159.46 -2071.50,79.73" fill="url(#bm11g6)" stroke="url(#bm11g6)" stroke-width="2.96"/><polygon points="-1657.20,159.46 -1657.20,318.93 -1795.30,398.66 -1933.40,318.93 -1933.40,159.46 -1795.30,79.73" fill="url(#bm11g6)" stroke="url(#bm11g6)" stroke-width="2.96"/><polygon points="-1381.00,159.46 -1381.00,318.93 -1519.10,398.66 -1657.20,318.93 -1657.20,159.46 -1519.10,79.73" fill="url(#bm11g6)" stroke="url(#bm11g6)" stroke-width="2.96"/><polygon points="-1104.80,159.46 -1104.80,318.93 -1242.90,398.66 -1381.00,318.93 -1381.00,159.46 -1242.90,79.73" fill="url(#bm11g6)" stroke="url(#bm11g6)" stroke-width="2.96"/><polygon points="-828.60,159.46 -828.60,318.93 -966.70,398.66 -1104.80,318.93 -1104.80,159.46 -966.70,79.73" fill="url(#bm11g6)" stroke="url(#bm11g6)" stroke-width="2.96"/><polygon points="-552.40,159.46 -552.40,318.93 -690.50,398.66 -828.60,318.93 -828.60,159.46 -690.50,79.73" fill="url(#bm11g6)" stroke="url(#bm11g6)" stroke-width="2.96"/><polygon points="-276.20,159.46 -276.20,318.93 -414.30,398.66 -552.40,318.93 -552.40,159.46 -414.30,79.73" fill="url(#bm11g6)" stroke="url(#bm11g6)" stroke-width="2.96"/><polygon points="0.00,159.46 0.00,318.93 -138.10,398.66 -276.20,318.93 -276.20,159.46 -138.10,79.73" fill="url(#bm11g6)" stroke="url(#bm11g6)" stroke-width="2.96"/><polygon points="276.20,159.46 276.20,318.93 138.10,398.66 0.00,318.93 0.00,159.46 138.10,79.73" fill="url(#bm11g6)" stroke="url(#bm11g6)" stroke-width="2.96"/><polygon points="552.40,159.46 552.40,318.93 414.30,398.66 276.20,318.93 276.20,159.46 414.30,79.73" fill="url(#bm11g6)" stroke="url(#bm11g6)" stroke-width="2.96"/><polygon points="828.60,159.46 828.60,318.93 690.50,398.66 552.40,318.93 552.40,159.46 690.50,79.73" fill="url(#bm11g6)" stroke="url(#bm11g6)" stroke-width="2.96"/><polygon points="1104.80,159.46 1104.80,318.93 966.70,398.66 828.60,318.93 828.60,159.46 966.70,79.73" fill="url(#bm11g6)" stroke="url(#bm11g6)" stroke-width="2.96"/><polygon points="1381.00,159.46 1381.00,318.93 1242.90,398.66 1104.80,318.93 1104.80,159.46 1242.90,79.73" fill="url(#bm11g6)" stroke="url(#bm11g6)" stroke-width="2.96"/><polygon points="1657.20,159.46 1657.20,318.93 1519.10,398.66 1381.00,318.93 1381.00,159.46 1519.10,79.73" fill="url(#bm11g6)" stroke="url(#bm11g6)" stroke-width="2.96"/><polygon points="1933.40,159.46 1933.40,318.93 1795.30,398.66 1657.20,318.93 1657.20,159.46 1795.30,79.73" fill="url(#bm11g6)" stroke="url(#bm11g6)" stroke-width="2.96"/><polygon points="2209.60,159.46 2209.60,318.93 2071.50,398.66 1933.40,318.93 1933.40,159.46 2071.50,79.73" fill="url(#bm11g6)" stroke="url(#bm11g6)" stroke-width="2.96"/><polygon points="2485.79,159.46 2485.79,318.93 2347.70,398.66 2209.60,318.93 2209.60,159.46 2347.70,79.73" fill="url(#bm11g6)" stroke="url(#bm11g6)" stroke-width="2.96"/><polygon points="2761.99,159.46 2761.99,318.93 2623.89,398.66 2485.79,318.93 2485.79,159.46 2623.89,79.73" fill="url(#bm11g6)" stroke="url(#bm11g6)" stroke-width="2.96"/><polygon points="3038.19,159.46 3038.19,318.93 2900.09,398.66 2761.99,318.93 2761.99,159.46 2900.09,79.73" fill="url(#bm11g6)" stroke="url(#bm11g6)" stroke-width="2.96"/><polygon points="3314.39,159.46 3314.39,318.93 3176.29,398.66 3038.19,318.93 3038.19,159.46 3176.29,79.73" fill="url(#bm11g6)" stroke="url(#bm11g6)" stroke-width="2.96"/><polygon points="3590.59,159.46 3590.59,318.93 3452.49,398.66 3314.39,318.93 3314.39,159.46 3452.49,79.73" fill="url(#bm11g6)" stroke="url(#bm11g6)" stroke-width="2.96"/><polygon points="3866.79,159.46 3866.79,318.93 3728.69,398.66 3590.59,318.93 3590.59,159.46 3728.69,79.73" fill="url(#bm11g6)" stroke="url(#bm11g6)" stroke-width="2.96"/><polygon points="4142.99,159.46 4142.99,318.93 4004.89,398.66 3866.79,318.93 3866.79,159.46 4004.89,79.73" fill="url(#bm11g6)" stroke="url(#bm11g6)" stroke-width="2.96"/><polygon points="-2071.50,398.66 -2071.50,558.12 -2209.60,637.86 -2347.70,558.12 -2347.70,398.66 -2209.60,318.93" fill="url(#bm11g6)" stroke="url(#bm11g6)" stroke-width="2.96"/><polygon points="-1795.30,398.66 -1795.30,558.12 -1933.40,637.86 -2071.50,558.12 -2071.50,398.66 -1933.40,318.93" fill="url(#bm11g6)" stroke="url(#bm11g6)" stroke-width="2.96"/><polygon points="-1519.10,398.66 -1519.10,558.12 -1657.20,637.86 -1795.30,558.12 -1795.30,398.66 -1657.20,318.93" fill="url(#bm11g6)" stroke="url(#bm11g6)" stroke-width="2.96"/><polygon points="-1242.90,398.66 -1242.90,558.12 -1381.00,637.86 -1519.10,558.12 -1519.10,398.66 -1381.00,318.93" fill="url(#bm11g6)" stroke="url(#bm11g6)" stroke-width="2.96"/><polygon points="-966.70,398.66 -966.70,558.12 -1104.80,637.86 -1242.90,558.12 -1242.90,398.66 -1104.80,318.93" fill="url(#bm11g6)" stroke="url(#bm11g6)" stroke-width="2.96"/><polygon points="-690.50,398.66 -690.50,558.12 -828.60,637.86 -966.70,558.12 -966.70,398.66 -828.60,318.93" fill="url(#bm11g6)" stroke="url(#bm11g6)" stroke-width="2.96"/><polygon points="-414.30,398.66 -414.30,558.12 -552.40,637.86 -690.50,558.12 -690.50,398.66 -552.40,318.93" fill="url(#bm11g6)" stroke="url(#bm11g6)" stroke-width="2.96"/><polygon points="-138.10,398.66 -138.10,558.12 -276.20,637.86 -414.30,558.12 -414.30,398.66 -276.20,318.93" fill="url(#bm11g6)" stroke="url(#bm11g6)" stroke-width="2.96"/><polygon points="138.10,398.66 138.10,558.12 0.00,637.86 -138.10,558.12 -138.10,398.66 -0.00,318.93" fill="url(#bm11g6)" stroke="url(#bm11g6)" stroke-width="2.96"/><polygon points="414.30,398.66 414.30,558.12 276.20,637.86 138.10,558.12 138.10,398.66 276.20,318.93" fill="url(#bm11g6)" stroke="url(#bm11g6)" stroke-width="2.96"/><polygon points="690.50,398.66 690.50,558.12 552.40,637.86 414.30,558.12 414.30,398.66 552.40,318.93" fill="url(#bm11g6)" stroke="url(#bm11g6)" stroke-width="2.96"/><polygon points="966.70,398.66 966.70,558.12 828.60,637.86 690.50,558.12 690.50,398.66 828.60,318.93" fill="url(#bm11g6)" stroke="url(#bm11g6)" stroke-width="2.96"/><polygon points="1242.90,398.66 1242.90,558.12 1104.80,637.86 966.70,558.12 966.70,398.66 1104.80,318.93" fill="url(#bm11g6)" stroke="url(#bm11g6)" stroke-width="2.96"/><polygon points="1519.10,398.66 1519.10,558.12 1381.00,637.86 1242.90,558.12 1242.90,398.66 1381.00,318.93" fill="url(#bm11g6)" stroke="url(#bm11g6)" stroke-width="2.96"/><polygon points="1795.30,398.66 1795.30,558.12 1657.20,637.86 1519.10,558.12 1519.10,398.66 1657.20,318.93" fill="url(#bm11g6)" stroke="url(#bm11g6)" stroke-width="2.96"/><polygon points="2071.50,398.66 2071.50,558.12 1933.40,637.86 1795.30,558.12 1795.30,398.66 1933.40,318.93" fill="url(#bm11g6)" stroke="url(#bm11g6)" stroke-width="2.96"/><polygon points="2347.70,398.66 2347.70,558.12 2209.60,637.86 2071.50,558.12 2071.50,398.66 2209.60,318.93" fill="url(#bm11g6)" stroke="url(#bm11g6)" stroke-width="2.96"/><polygon points="2623.89,398.66 2623.89,558.12 2485.79,637.86 2347.70,558.12 2347.70,398.66 2485.79,318.93" fill="url(#bm11g6)" stroke="url(#bm11g6)" stroke-width="2.96"/><polygon points="2900.09,398.66 2900.09,558.12 2761.99,637.86 2623.89,558.12 2623.89,398.66 2761.99,318.93" fill="url(#bm11g6)" stroke="url(#bm11g6)" stroke-width="2.96"/><polygon points="3176.29,398.66 3176.29,558.12 3038.19,637.86 2900.09,558.12 2900.09,398.66 3038.19,318.93" fill="url(#bm11g6)" stroke="url(#bm11g6)" stroke-width="2.96"/><polygon points="3452.49,398.66 3452.49,558.12 3314.39,637.86 3176.29,558.12 3176.29,398.66 3314.39,318.93" fill="url(#bm11g6)" stroke="url(#bm11g6)" stroke-width="2.96"/><polygon points="3728.69,398.66 3728.69,558.12 3590.59,637.86 3452.49,558.12 3452.49,398.66 3590.59,318.93" fill="url(#bm11g6)" stroke="url(#bm11g6)" stroke-width="2.96"/><polygon points="4004.89,398.66 4004.89,558.12 3866.79,637.86 3728.69,558.12 3728.69,398.66 3866.79,318.93" fill="url(#bm11g6)" stroke="url(#bm11g6)" stroke-width="2.96"/><polygon points="-1933.40,637.86 -1933.40,797.32 -2071.50,877.05 -2209.60,797.32 -2209.60,637.86 -2071.50,558.12" fill="url(#bm11g6)" stroke="url(#bm11g6)" stroke-width="2.96"/><polygon points="-1657.20,637.86 -1657.20,797.32 -1795.30,877.05 -1933.40,797.32 -1933.40,637.86 -1795.30,558.12" fill="url(#bm11g6)" stroke="url(#bm11g6)" stroke-width="2.96"/><polygon points="-1381.00,637.86 -1381.00,797.32 -1519.10,877.05 -1657.20,797.32 -1657.20,637.86 -1519.10,558.12" fill="url(#bm11g6)" stroke="url(#bm11g6)" stroke-width="2.96"/><polygon points="-1104.80,637.86 -1104.80,797.32 -1242.90,877.05 -1381.00,797.32 -1381.00,637.86 -1242.90,558.12" fill="url(#bm11g6)" stroke="url(#bm11g6)" stroke-width="2.96"/><polygon points="-828.60,637.86 -828.60,797.32 -966.70,877.05 -1104.80,797.32 -1104.80,637.86 -966.70,558.12" fill="url(#bm11g6)" stroke="url(#bm11g6)" stroke-width="2.96"/><polygon points="-552.40,637.86 -552.40,797.32 -690.50,877.05 -828.60,797.32 -828.60,637.86 -690.50,558.12" fill="url(#bm11g6)" stroke="url(#bm11g6)" stroke-width="2.96"/><polygon points="-276.20,637.86 -276.20,797.32 -414.30,877.05 -552.40,797.32 -552.40,637.86 -414.30,558.12" fill="url(#bm11g6)" stroke="url(#bm11g6)" stroke-width="2.96"/><polygon points="0.00,637.86 0.00,797.32 -138.10,877.05 -276.20,797.32 -276.20,637.86 -138.10,558.12" fill="url(#bm11g6)" stroke="url(#bm11g6)" stroke-width="2.96"/><polygon points="276.20,637.86 276.20,797.32 138.10,877.05 0.00,797.32 0.00,637.86 138.10,558.12" fill="url(#bm11g6)" stroke="url(#bm11g6)" stroke-width="2.96"/><polygon points="552.40,637.86 552.40,797.32 414.30,877.05 276.20,797.32 276.20,637.86 414.30,558.12" fill="url(#bm11g6)" stroke="url(#bm11g6)" stroke-width="2.96"/><polygon points="828.60,637.86 828.60,797.32 690.50,877.05 552.40,797.32 552.40,637.86 690.50,558.12" fill="url(#bm11g6)" stroke="url(#bm11g6)" stroke-width="2.96"/><polygon points="1104.80,637.86 1104.80,797.32 966.70,877.05 828.60,797.32 828.60,637.86 966.70,558.12" fill="url(#bm11g6)" stroke="url(#bm11g6)" stroke-width="2.96"/><polygon points="1381.00,637.86 1381.00,797.32 1242.90,877.05 1104.80,797.32 1104.80,637.86 1242.90,558.12" fill="url(#bm11g6)" stroke="url(#bm11g6)" stroke-width="2.96"/><polygon points="1657.20,637.86 1657.20,797.32 1519.10,877.05 1381.00,797.32 1381.00,637.86 1519.10,558.12" fill="url(#bm11g6)" stroke="url(#bm11g6)" stroke-width="2.96"/><polygon points="1933.40,637.86 1933.40,797.32 1795.30,877.05 1657.20,797.32 1657.20,637.86 1795.30,558.12" fill="url(#bm11g6)" stroke="url(#bm11g6)" stroke-width="2.96"/><polygon points="2209.60,637.86 2209.60,797.32 2071.50,877.05 1933.40,797.32 1933.40,637.86 2071.50,558.12" fill="url(#bm11g6)" stroke="url(#bm11g6)" stroke-width="2.96"/><polygon points="2485.79,637.86 2485.79,797.32 2347.70,877.05 2209.60,797.32 2209.60,637.86 2347.70,558.12" fill="url(#bm11g6)" stroke="url(#bm11g6)" stroke-width="2.96"/><polygon points="2761.99,637.86 2761.99,797.32 2623.89,877.05 2485.79,797.32 2485.79,637.86 2623.89,558.12" fill="url(#bm11g6)" stroke="url(#bm11g6)" stroke-width="2.96"/><polygon points="3038.19,637.86 3038.19,797.32 2900.09,877.05 2761.99,797.32 2761.99,637.86 2900.09,558.12" fill="url(#bm11g6)" stroke="url(#bm11g6)" stroke-width="2.96"/><polygon points="3314.39,637.86 3314.39,797.32 3176.29,877.05 3038.19,797.32 3038.19,637.86 3176.29,558.12" fill="url(#bm11g6)" stroke="url(#bm11g6)" stroke-width="2.96"/><polygon points="3590.59,637.86 3590.59,797.32 3452.49,877.05 3314.39,797.32 3314.39,637.86 3452.49,558.12" fill="url(#bm11g6)" stroke="url(#bm11g6)" stroke-width="2.96"/><polygon points="3866.79,637.86 3866.79,797.32 3728.69,877.05 3590.59,797.32 3590.59,637.86 3728.69,558.12" fill="url(#bm11g6)" stroke="url(#bm11g6)" stroke-width="2.96"/><polygon points="4142.99,637.86 4142.99,797.32 4004.89,877.05 3866.79,797.32 3866.79,637.86 4004.89,558.12" fill="url(#bm11g6)" stroke="url(#bm11g6)" stroke-width="2.96"/><polygon points="-2071.50,877.05 -2071.50,1036.51 -2209.60,1116.25 -2347.70,1036.51 -2347.70,877.05 -2209.60,797.32" fill="url(#bm11g6)" stroke="url(#bm11g6)" stroke-width="2.96"/><polygon points="-1795.30,877.05 -1795.30,1036.51 -1933.40,1116.25 -2071.50,1036.51 -2071.50,877.05 -1933.40,797.32" fill="url(#bm11g6)" stroke="url(#bm11g6)" stroke-width="2.96"/><polygon points="-1519.10,877.05 -1519.10,1036.51 -1657.20,1116.25 -1795.30,1036.51 -1795.30,877.05 -1657.20,797.32" fill="url(#bm11g6)" stroke="url(#bm11g6)" stroke-width="2.96"/><polygon points="-1242.90,877.05 -1242.90,1036.51 -1381.00,1116.25 -1519.10,1036.51 -1519.10,877.05 -1381.00,797.32" fill="url(#bm11g6)" stroke="url(#bm11g6)" stroke-width="2.96"/><polygon points="-966.70,877.05 -966.70,1036.51 -1104.80,1116.25 -1242.90,1036.51 -1242.90,877.05 -1104.80,797.32" fill="url(#bm11g6)" stroke="url(#bm11g6)" stroke-width="2.96"/><polygon points="-690.50,877.05 -690.50,1036.51 -828.60,1116.25 -966.70,1036.51 -966.70,877.05 -828.60,797.32" fill="url(#bm11g6)" stroke="url(#bm11g6)" stroke-width="2.96"/><polygon points="-414.30,877.05 -414.30,1036.51 -552.40,1116.25 -690.50,1036.51 -690.50,877.05 -552.40,797.32" fill="url(#bm11g6)" stroke="url(#bm11g6)" stroke-width="2.96"/><polygon points="-138.10,877.05 -138.10,1036.51 -276.20,1116.25 -414.30,1036.51 -414.30,877.05 -276.20,797.32" fill="url(#bm11g6)" stroke="url(#bm11g6)" stroke-width="2.96"/><polygon points="138.10,877.05 138.10,1036.51 0.00,1116.25 -138.10,1036.51 -138.10,877.05 -0.00,797.32" fill="url(#bm11g6)" stroke="url(#bm11g6)" stroke-width="2.96"/><polygon points="414.30,877.05 414.30,1036.51 276.20,1116.25 138.10,1036.51 138.10,877.05 276.20,797.32" fill="url(#bm11g6)" stroke="url(#bm11g6)" stroke-width="2.96"/><polygon points="690.50,877.05 690.50,1036.51 552.40,1116.25 414.30,1036.51 414.30,877.05 552.40,797.32" fill="url(#bm11g6)" stroke="url(#bm11g6)" stroke-width="2.96"/><polygon points="966.70,877.05 966.70,1036.51 828.60,1116.25 690.50,1036.51 690.50,877.05 828.60,797.32" fill="url(#bm11g6)" stroke="url(#bm11g6)" stroke-width="2.96"/><polygon points="1242.90,877.05 1242.90,1036.51 1104.80,1116.25 966.70,1036.51 966.70,877.05 1104.80,797.32" fill="url(#bm11g6)" stroke="url(#bm11g6)" stroke-width="2.96"/><polygon points="1519.10,877.05 1519.10,1036.51 1381.00,1116.25 1242.90,1036.51 1242.90,877.05 1381.00,797.32" fill="url(#bm11g6)" stroke="url(#bm11g6)" stroke-width="2.96"/><polygon points="1795.30,877.05 1795.30,1036.51 1657.20,1116.25 1519.10,1036.51 1519.10,877.05 1657.20,797.32" fill="url(#bm11g6)" stroke="url(#bm11g6)" stroke-width="2.96"/><polygon points="2071.50,877.05 2071.50,1036.51 1933.40,1116.25 1795.30,1036.51 1795.30,877.05 1933.40,797.32" fill="url(#bm11g6)" stroke="url(#bm11g6)" stroke-width="2.96"/><polygon points="2347.70,877.05 2347.70,1036.51 2209.60,1116.25 2071.50,1036.51 2071.50,877.05 2209.60,797.32" fill="url(#bm11g6)" stroke="url(#bm11g6)" stroke-width="2.96"/><polygon points="2623.89,877.05 2623.89,1036.51 2485.79,1116.25 2347.70,1036.51 2347.70,877.05 2485.79,797.32" fill="url(#bm11g6)" stroke="url(#bm11g6)" stroke-width="2.96"/><polygon points="2900.09,877.05 2900.09,1036.51 2761.99,1116.25 2623.89,1036.51 2623.89,877.05 2761.99,797.32" fill="url(#bm11g6)" stroke="url(#bm11g6)" stroke-width="2.96"/><polygon points="3176.29,877.05 3176.29,1036.51 3038.19,1116.25 2900.09,1036.51 2900.09,877.05 3038.19,797.32" fill="url(#bm11g6)" stroke="url(#bm11g6)" stroke-width="2.96"/><polygon points="3452.49,877.05 3452.49,1036.51 3314.39,1116.25 3176.29,1036.51 3176.29,877.05 3314.39,797.32" fill="url(#bm11g6)" stroke="url(#bm11g6)" stroke-width="2.96"/><polygon points="3728.69,877.05 3728.69,1036.51 3590.59,1116.25 3452.49,1036.51 3452.49,877.05 3590.59,797.32" fill="url(#bm11g6)" stroke="url(#bm11g6)" stroke-width="2.96"/><polygon points="4004.89,877.05 4004.89,1036.51 3866.79,1116.25 3728.69,1036.51 3728.69,877.05 3866.79,797.32" fill="url(#bm11g6)" stroke="url(#bm11g6)" stroke-width="2.96"/><polygon points="-1933.40,1116.25 -1933.40,1275.71 -2071.50,1355.44 -2209.60,1275.71 -2209.60,1116.25 -2071.50,1036.51" fill="url(#bm11g6)" stroke="url(#bm11g6)" stroke-width="2.96"/><polygon points="-1657.20,1116.25 -1657.20,1275.71 -1795.30,1355.44 -1933.40,1275.71 -1933.40,1116.25 -1795.30,1036.51" fill="url(#bm11g6)" stroke="url(#bm11g6)" stroke-width="2.96"/><polygon points="-1381.00,1116.25 -1381.00,1275.71 -1519.10,1355.44 -1657.20,1275.71 -1657.20,1116.25 -1519.10,1036.51" fill="url(#bm11g6)" stroke="url(#bm11g6)" stroke-width="2.96"/><polygon points="-1104.80,1116.25 -1104.80,1275.71 -1242.90,1355.44 -1381.00,1275.71 -1381.00,1116.25 -1242.90,1036.51" fill="url(#bm11g6)" stroke="url(#bm11g6)" stroke-width="2.96"/><polygon points="-828.60,1116.25 -828.60,1275.71 -966.70,1355.44 -1104.80,1275.71 -1104.80,1116.25 -966.70,1036.51" fill="url(#bm11g6)" stroke="url(#bm11g6)" stroke-width="2.96"/><polygon points="-552.40,1116.25 -552.40,1275.71 -690.50,1355.44 -828.60,1275.71 -828.60,1116.25 -690.50,1036.51" fill="url(#bm11g6)" stroke="url(#bm11g6)" stroke-width="2.96"/><polygon points="-276.20,1116.25 -276.20,1275.71 -414.30,1355.44 -552.40,1275.71 -552.40,1116.25 -414.30,1036.51" fill="url(#bm11g6)" stroke="url(#bm11g6)" stroke-width="2.96"/><polygon points="0.00,1116.25 0.00,1275.71 -138.10,1355.44 -276.20,1275.71 -276.20,1116.25 -138.10,1036.51" fill="url(#bm11g6)" stroke="url(#bm11g6)" stroke-width="2.96"/><polygon points="276.20,1116.25 276.20,1275.71 138.10,1355.44 0.00,1275.71 0.00,1116.25 138.10,1036.51" fill="url(#bm11g6)" stroke="url(#bm11g6)" stroke-width="2.96"/><polygon points="552.40,1116.25 552.40,1275.71 414.30,1355.44 276.20,1275.71 276.20,1116.25 414.30,1036.51" fill="url(#bm11g6)" stroke="url(#bm11g6)" stroke-width="2.96"/><polygon points="828.60,1116.25 828.60,1275.71 690.50,1355.44 552.40,1275.71 552.40,1116.25 690.50,1036.51" fill="url(#bm11g6)" stroke="url(#bm11g6)" stroke-width="2.96"/><polygon points="1104.80,1116.25 1104.80,1275.71 966.70,1355.44 828.60,1275.71 828.60,1116.25 966.70,1036.51" fill="url(#bm11g6)" stroke="url(#bm11g6)" stroke-width="2.96"/><polygon points="1381.00,1116.25 1381.00,1275.71 1242.90,1355.44 1104.80,1275.71 1104.80,1116.25 1242.90,1036.51" fill="url(#bm11g6)" stroke="url(#bm11g6)" stroke-width="2.96"/><polygon points="1657.20,1116.25 1657.20,1275.71 1519.10,1355.44 1381.00,1275.71 1381.00,1116.25 1519.10,1036.51" fill="url(#bm11g6)" stroke="url(#bm11g6)" stroke-width="2.96"/><polygon points="1933.40,1116.25 1933.40,1275.71 1795.30,1355.44 1657.20,1275.71 1657.20,1116.25 1795.30,1036.51" fill="url(#bm11g6)" stroke="url(#bm11g6)" stroke-width="2.96"/><polygon points="2209.60,1116.25 2209.60,1275.71 2071.50,1355.44 1933.40,1275.71 1933.40,1116.25 2071.50,1036.51" fill="url(#bm11g6)" stroke="url(#bm11g6)" stroke-width="2.96"/><polygon points="2485.79,1116.25 2485.79,1275.71 2347.70,1355.44 2209.60,1275.71 2209.60,1116.25 2347.70,1036.51" fill="url(#bm11g6)" stroke="url(#bm11g6)" stroke-width="2.96"/><polygon points="2761.99,1116.25 2761.99,1275.71 2623.89,1355.44 2485.79,1275.71 2485.79,1116.25 2623.89,1036.51" fill="url(#bm11g6)" stroke="url(#bm11g6)" stroke-width="2.96"/><polygon points="3038.19,1116.25 3038.19,1275.71 2900.09,1355.44 2761.99,1275.71 2761.99,1116.25 2900.09,1036.51" fill="url(#bm11g6)" stroke="url(#bm11g6)" stroke-width="2.96"/><polygon points="3314.39,1116.25 3314.39,1275.71 3176.29,1355.44 3038.19,1275.71 3038.19,1116.25 3176.29,1036.51" fill="url(#bm11g6)" stroke="url(#bm11g6)" stroke-width="2.96"/><polygon points="3590.59,1116.25 3590.59,1275.71 3452.49,1355.44 3314.39,1275.71 3314.39,1116.25 3452.49,1036.51" fill="url(#bm11g6)" stroke="url(#bm11g6)" stroke-width="2.96"/><polygon points="3866.79,1116.25 3866.79,1275.71 3728.69,1355.44 3590.59,1275.71 3590.59,1116.25 3728.69,1036.51" fill="url(#bm11g6)" stroke="url(#bm11g6)" stroke-width="2.96"/><polygon points="4142.99,1116.25 4142.99,1275.71 4004.89,1355.44 3866.79,1275.71 3866.79,1116.25 4004.89,1036.51" fill="url(#bm11g6)" stroke="url(#bm11g6)" stroke-width="2.96"/><polygon points="-2071.50,1355.44 -2071.50,1514.91 -2209.60,1594.64 -2347.70,1514.91 -2347.70,1355.44 -2209.60,1275.71" fill="url(#bm11g6)" stroke="url(#bm11g6)" stroke-width="2.96"/><polygon points="-1795.30,1355.44 -1795.30,1514.91 -1933.40,1594.64 -2071.50,1514.91 -2071.50,1355.44 -1933.40,1275.71" fill="url(#bm11g6)" stroke="url(#bm11g6)" stroke-width="2.96"/><polygon points="-1519.10,1355.44 -1519.10,1514.91 -1657.20,1594.64 -1795.30,1514.91 -1795.30,1355.44 -1657.20,1275.71" fill="url(#bm11g6)" stroke="url(#bm11g6)" stroke-width="2.96"/><polygon points="-1242.90,1355.44 -1242.90,1514.91 -1381.00,1594.64 -1519.10,1514.91 -1519.10,1355.44 -1381.00,1275.71" fill="url(#bm11g6)" stroke="url(#bm11g6)" stroke-width="2.96"/><polygon points="-966.70,1355.44 -966.70,1514.91 -1104.80,1594.64 -1242.90,1514.91 -1242.90,1355.44 -1104.80,1275.71" fill="url(#bm11g6)" stroke="url(#bm11g6)" stroke-width="2.96"/><polygon points="-690.50,1355.44 -690.50,1514.91 -828.60,1594.64 -966.70,1514.91 -966.70,1355.44 -828.60,1275.71" fill="url(#bm11g6)" stroke="url(#bm11g6)" stroke-width="2.96"/><polygon points="-414.30,1355.44 -414.30,1514.91 -552.40,1594.64 -690.50,1514.91 -690.50,1355.44 -552.40,1275.71" fill="url(#bm11g6)" stroke="url(#bm11g6)" stroke-width="2.96"/><polygon points="-138.10,1355.44 -138.10,1514.91 -276.20,1594.64 -414.30,1514.91 -414.30,1355.44 -276.20,1275.71" fill="url(#bm11g6)" stroke="url(#bm11g6)" stroke-width="2.96"/><polygon points="138.10,1355.44 138.10,1514.91 0.00,1594.64 -138.10,1514.91 -138.10,1355.44 -0.00,1275.71" fill="url(#bm11g6)" stroke="url(#bm11g6)" stroke-width="2.96"/><polygon points="414.30,1355.44 414.30,1514.91 276.20,1594.64 138.10,1514.91 138.10,1355.44 276.20,1275.71" fill="url(#bm11g6)" stroke="url(#bm11g6)" stroke-width="2.96"/><polygon points="690.50,1355.44 690.50,1514.91 552.40,1594.64 414.30,1514.91 414.30,1355.44 552.40,1275.71" fill="url(#bm11g6)" stroke="url(#bm11g6)" stroke-width="2.96"/><polygon points="966.70,1355.44 966.70,1514.91 828.60,1594.64 690.50,1514.91 690.50,1355.44 828.60,1275.71" fill="url(#bm11g6)" stroke="url(#bm11g6)" stroke-width="2.96"/><polygon points="1242.90,1355.44 1242.90,1514.91 1104.80,1594.64 966.70,1514.91 966.70,1355.44 1104.80,1275.71" fill="url(#bm11g6)" stroke="url(#bm11g6)" stroke-width="2.96"/><polygon points="1519.10,1355.44 1519.10,1514.91 1381.00,1594.64 1242.90,1514.91 1242.90,1355.44 1381.00,1275.71" fill="url(#bm11g6)" stroke="url(#bm11g6)" stroke-width="2.96"/><polygon points="1795.30,1355.44 1795.30,1514.91 1657.20,1594.64 1519.10,1514.91 1519.10,1355.44 1657.20,1275.71" fill="url(#bm11g6)" stroke="url(#bm11g6)" stroke-width="2.96"/><polygon points="2071.50,1355.44 2071.50,1514.91 1933.40,1594.64 1795.30,1514.91 1795.30,1355.44 1933.40,1275.71" fill="url(#bm11g6)" stroke="url(#bm11g6)" stroke-width="2.96"/><polygon points="2347.70,1355.44 2347.70,1514.91 2209.60,1594.64 2071.50,1514.91 2071.50,1355.44 2209.60,1275.71" fill="url(#bm11g6)" stroke="url(#bm11g6)" stroke-width="2.96"/><polygon points="2623.89,1355.44 2623.89,1514.91 2485.79,1594.64 2347.70,1514.91 2347.70,1355.44 2485.79,1275.71" fill="url(#bm11g6)" stroke="url(#bm11g6)" stroke-width="2.96"/><polygon points="2900.09,1355.44 2900.09,1514.91 2761.99,1594.64 2623.89,1514.91 2623.89,1355.44 2761.99,1275.71" fill="url(#bm11g6)" stroke="url(#bm11g6)" stroke-width="2.96"/><polygon points="3176.29,1355.44 3176.29,1514.91 3038.19,1594.64 2900.09,1514.91 2900.09,1355.44 3038.19,1275.71" fill="url(#bm11g6)" stroke="url(#bm11g6)" stroke-width="2.96"/><polygon points="3452.49,1355.44 3452.49,1514.91 3314.39,1594.64 3176.29,1514.91 3176.29,1355.44 3314.39,1275.71" fill="url(#bm11g6)" stroke="url(#bm11g6)" stroke-width="2.96"/><polygon points="3728.69,1355.44 3728.69,1514.91 3590.59,1594.64 3452.49,1514.91 3452.49,1355.44 3590.59,1275.71" fill="url(#bm11g6)" stroke="url(#bm11g6)" stroke-width="2.96"/><polygon points="4004.89,1355.44 4004.89,1514.91 3866.79,1594.64 3728.69,1514.91 3728.69,1355.44 3866.79,1275.71" fill="url(#bm11g6)" stroke="url(#bm11g6)" stroke-width="2.96"/><polygon points="-1933.40,1594.64 -1933.40,1754.10 -2071.50,1833.83 -2209.60,1754.10 -2209.60,1594.64 -2071.50,1514.91" fill="url(#bm11g6)" stroke="url(#bm11g6)" stroke-width="2.96"/><polygon points="-1657.20,1594.64 -1657.20,1754.10 -1795.30,1833.83 -1933.40,1754.10 -1933.40,1594.64 -1795.30,1514.91" fill="url(#bm11g6)" stroke="url(#bm11g6)" stroke-width="2.96"/><polygon points="-1381.00,1594.64 -1381.00,1754.10 -1519.10,1833.83 -1657.20,1754.10 -1657.20,1594.64 -1519.10,1514.91" fill="url(#bm11g6)" stroke="url(#bm11g6)" stroke-width="2.96"/><polygon points="-1104.80,1594.64 -1104.80,1754.10 -1242.90,1833.83 -1381.00,1754.10 -1381.00,1594.64 -1242.90,1514.91" fill="url(#bm11g6)" stroke="url(#bm11g6)" stroke-width="2.96"/><polygon points="-828.60,1594.64 -828.60,1754.10 -966.70,1833.83 -1104.80,1754.10 -1104.80,1594.64 -966.70,1514.91" fill="url(#bm11g6)" stroke="url(#bm11g6)" stroke-width="2.96"/><polygon points="-552.40,1594.64 -552.40,1754.10 -690.50,1833.83 -828.60,1754.10 -828.60,1594.64 -690.50,1514.91" fill="url(#bm11g6)" stroke="url(#bm11g6)" stroke-width="2.96"/><polygon points="-276.20,1594.64 -276.20,1754.10 -414.30,1833.83 -552.40,1754.10 -552.40,1594.64 -414.30,1514.91" fill="url(#bm11g6)" stroke="url(#bm11g6)" stroke-width="2.96"/><polygon points="0.00,1594.64 0.00,1754.10 -138.10,1833.83 -276.20,1754.10 -276.20,1594.64 -138.10,1514.91" fill="url(#bm11g6)" stroke="url(#bm11g6)" stroke-width="2.96"/><polygon points="276.20,1594.64 276.20,1754.10 138.10,1833.83 0.00,1754.10 0.00,1594.64 138.10,1514.91" fill="url(#bm11g6)" stroke="url(#bm11g6)" stroke-width="2.96"/><polygon points="552.40,1594.64 552.40,1754.10 414.30,1833.83 276.20,1754.10 276.20,1594.64 414.30,1514.91" fill="url(#bm11g6)" stroke="url(#bm11g6)" stroke-width="2.96"/><polygon points="828.60,1594.64 828.60,1754.10 690.50,1833.83 552.40,1754.10 552.40,1594.64 690.50,1514.91" fill="url(#bm11g6)" stroke="url(#bm11g6)" stroke-width="2.96"/><polygon points="1104.80,1594.64 1104.80,1754.10 966.70,1833.83 828.60,1754.10 828.60,1594.64 966.70,1514.91" fill="url(#bm11g6)" stroke="url(#bm11g6)" stroke-width="2.96"/><polygon points="1381.00,1594.64 1381.00,1754.10 1242.90,1833.83 1104.80,1754.10 1104.80,1594.64 1242.90,1514.91" fill="url(#bm11g6)" stroke="url(#bm11g6)" stroke-width="2.96"/><polygon points="1657.20,1594.64 1657.20,1754.10 1519.10,1833.83 1381.00,1754.10 1381.00,1594.64 1519.10,1514.91" fill="url(#bm11g6)" stroke="url(#bm11g6)" stroke-width="2.96"/><polygon points="1933.40,1594.64 1933.40,1754.10 1795.30,1833.83 1657.20,1754.10 1657.20,1594.64 1795.30,1514.91" fill="url(#bm11g6)" stroke="url(#bm11g6)" stroke-width="2.96"/><polygon points="2209.60,1594.64 2209.60,1754.10 2071.50,1833.83 1933.40,1754.10 1933.40,1594.64 2071.50,1514.91" fill="url(#bm11g6)" stroke="url(#bm11g6)" stroke-width="2.96"/><polygon points="2485.79,1594.64 2485.79,1754.10 2347.70,1833.83 2209.60,1754.10 2209.60,1594.64 2347.70,1514.91" fill="url(#bm11g6)" stroke="url(#bm11g6)" stroke-width="2.96"/><polygon points="2761.99,1594.64 2761.99,1754.10 2623.89,1833.83 2485.79,1754.10 2485.79,1594.64 2623.89,1514.91" fill="url(#bm11g6)" stroke="url(#bm11g6)" stroke-width="2.96"/><polygon points="3038.19,1594.64 3038.19,1754.10 2900.09,1833.83 2761.99,1754.10 2761.99,1594.64 2900.09,1514.91" fill="url(#bm11g6)" stroke="url(#bm11g6)" stroke-width="2.96"/><polygon points="3314.39,1594.64 3314.39,1754.10 3176.29,1833.83 3038.19,1754.10 3038.19,1594.64 3176.29,1514.91" fill="url(#bm11g6)" stroke="url(#bm11g6)" stroke-width="2.96"/><polygon points="3590.59,1594.64 3590.59,1754.10 3452.49,1833.83 3314.39,1754.10 3314.39,1594.64 3452.49,1514.91" fill="url(#bm11g6)" stroke="url(#bm11g6)" stroke-width="2.96"/><polygon points="3866.79,1594.64 3866.79,1754.10 3728.69,1833.83 3590.59,1754.10 3590.59,1594.64 3728.69,1514.91" fill="url(#bm11g6)" stroke="url(#bm11g6)" stroke-width="2.96"/><polygon points="4142.99,1594.64 4142.99,1754.10 4004.89,1833.83 3866.79,1754.10 3866.79,1594.64 4004.89,1514.91" fill="url(#bm11g6)" stroke="url(#bm11g6)" stroke-width="2.96"/><polygon points="-2071.50,1833.83 -2071.50,1993.30 -2209.60,2073.03 -2347.70,1993.30 -2347.70,1833.83 -2209.60,1754.10" fill="url(#bm11g6)" stroke="url(#bm11g6)" stroke-width="2.96"/><polygon points="-1795.30,1833.83 -1795.30,1993.30 -1933.40,2073.03 -2071.50,1993.30 -2071.50,1833.83 -1933.40,1754.10" fill="url(#bm11g6)" stroke="url(#bm11g6)" stroke-width="2.96"/><polygon points="-1519.10,1833.83 -1519.10,1993.30 -1657.20,2073.03 -1795.30,1993.30 -1795.30,1833.83 -1657.20,1754.10" fill="url(#bm11g6)" stroke="url(#bm11g6)" stroke-width="2.96"/><polygon points="-1242.90,1833.83 -1242.90,1993.30 -1381.00,2073.03 -1519.10,1993.30 -1519.10,1833.83 -1381.00,1754.10" fill="url(#bm11g6)" stroke="url(#bm11g6)" stroke-width="2.96"/><polygon points="-966.70,1833.83 -966.70,1993.30 -1104.80,2073.03 -1242.90,1993.30 -1242.90,1833.83 -1104.80,1754.10" fill="url(#bm11g6)" stroke="url(#bm11g6)" stroke-width="2.96"/><polygon points="-690.50,1833.83 -690.50,1993.30 -828.60,2073.03 -966.70,1993.30 -966.70,1833.83 -828.60,1754.10" fill="url(#bm11g6)" stroke="url(#bm11g6)" stroke-width="2.96"/><polygon points="-414.30,1833.83 -414.30,1993.30 -552.40,2073.03 -690.50,1993.30 -690.50,1833.83 -552.40,1754.10" fill="url(#bm11g6)" stroke="url(#bm11g6)" stroke-width="2.96"/><polygon points="-138.10,1833.83 -138.10,1993.30 -276.20,2073.03 -414.30,1993.30 -414.30,1833.83 -276.20,1754.10" fill="url(#bm11g6)" stroke="url(#bm11g6)" stroke-width="2.96"/><polygon points="138.10,1833.83 138.10,1993.30 0.00,2073.03 -138.10,1993.30 -138.10,1833.83 -0.00,1754.10" fill="url(#bm11g6)" stroke="url(#bm11g6)" stroke-width="2.96"/><polygon points="414.30,1833.83 414.30,1993.30 276.20,2073.03 138.10,1993.30 138.10,1833.83 276.20,1754.10" fill="url(#bm11g6)" stroke="url(#bm11g6)" stroke-width="2.96"/><polygon points="690.50,1833.83 690.50,1993.30 552.40,2073.03 414.30,1993.30 414.30,1833.83 552.40,1754.10" fill="url(#bm11g6)" stroke="url(#bm11g6)" stroke-width="2.96"/><polygon points="966.70,1833.83 966.70,1993.30 828.60,2073.03 690.50,1993.30 690.50,1833.83 828.60,1754.10" fill="url(#bm11g6)" stroke="url(#bm11g6)" stroke-width="2.96"/><polygon points="1242.90,1833.83 1242.90,1993.30 1104.80,2073.03 966.70,1993.30 966.70,1833.83 1104.80,1754.10" fill="url(#bm11g6)" stroke="url(#bm11g6)" stroke-width="2.96"/><polygon points="1519.10,1833.83 1519.10,1993.30 1381.00,2073.03 1242.90,1993.30 1242.90,1833.83 1381.00,1754.10" fill="url(#bm11g6)" stroke="url(#bm11g6)" stroke-width="2.96"/><polygon points="1795.30,1833.83 1795.30,1993.30 1657.20,2073.03 1519.10,1993.30 1519.10,1833.83 1657.20,1754.10" fill="url(#bm11g6)" stroke="url(#bm11g6)" stroke-width="2.96"/><polygon points="2071.50,1833.83 2071.50,1993.30 1933.40,2073.03 1795.30,1993.30 1795.30,1833.83 1933.40,1754.10" fill="url(#bm11g6)" stroke="url(#bm11g6)" stroke-width="2.96"/><polygon points="2347.70,1833.83 2347.70,1993.30 2209.60,2073.03 2071.50,1993.30 2071.50,1833.83 2209.60,1754.10" fill="url(#bm11g6)" stroke="url(#bm11g6)" stroke-width="2.96"/><polygon points="2623.89,1833.83 2623.89,1993.30 2485.79,2073.03 2347.70,1993.30 2347.70,1833.83 2485.79,1754.10" fill="url(#bm11g6)" stroke="url(#bm11g6)" stroke-width="2.96"/><polygon points="2900.09,1833.83 2900.09,1993.30 2761.99,2073.03 2623.89,1993.30 2623.89,1833.83 2761.99,1754.10" fill="url(#bm11g6)" stroke="url(#bm11g6)" stroke-width="2.96"/><polygon points="3176.29,1833.83 3176.29,1993.30 3038.19,2073.03 2900.09,1993.30 2900.09,1833.83 3038.19,1754.10" fill="url(#bm11g6)" stroke="url(#bm11g6)" stroke-width="2.96"/><polygon points="3452.49,1833.83 3452.49,1993.30 3314.39,2073.03 3176.29,1993.30 3176.29,1833.83 3314.39,1754.10" fill="url(#bm11g6)" stroke="url(#bm11g6)" stroke-width="2.96"/><polygon points="3728.69,1833.83 3728.69,1993.30 3590.59,2073.03 3452.49,1993.30 3452.49,1833.83 3590.59,1754.10" fill="url(#bm11g6)" stroke="url(#bm11g6)" stroke-width="2.96"/><polygon points="4004.89,1833.83 4004.89,1993.30 3866.79,2073.03 3728.69,1993.30 3728.69,1833.83 3866.79,1754.10" fill="url(#bm11g6)" stroke="url(#bm11g6)" stroke-width="2.96"/><polygon points="-1933.40,2073.03 -1933.40,2232.49 -2071.50,2312.23 -2209.60,2232.49 -2209.60,2073.03 -2071.50,1993.30" fill="url(#bm11g6)" stroke="url(#bm11g6)" stroke-width="2.96"/><polygon points="-1657.20,2073.03 -1657.20,2232.49 -1795.30,2312.23 -1933.40,2232.49 -1933.40,2073.03 -1795.30,1993.30" fill="url(#bm11g6)" stroke="url(#bm11g6)" stroke-width="2.96"/><polygon points="-1381.00,2073.03 -1381.00,2232.49 -1519.10,2312.23 -1657.20,2232.49 -1657.20,2073.03 -1519.10,1993.30" fill="url(#bm11g6)" stroke="url(#bm11g6)" stroke-width="2.96"/><polygon points="-1104.80,2073.03 -1104.80,2232.49 -1242.90,2312.23 -1381.00,2232.49 -1381.00,2073.03 -1242.90,1993.30" fill="url(#bm11g6)" stroke="url(#bm11g6)" stroke-width="2.96"/><polygon points="-828.60,2073.03 -828.60,2232.49 -966.70,2312.23 -1104.80,2232.49 -1104.80,2073.03 -966.70,1993.30" fill="url(#bm11g6)" stroke="url(#bm11g6)" stroke-width="2.96"/><polygon points="-552.40,2073.03 -552.40,2232.49 -690.50,2312.23 -828.60,2232.49 -828.60,2073.03 -690.50,1993.30" fill="url(#bm11g6)" stroke="url(#bm11g6)" stroke-width="2.96"/><polygon points="-276.20,2073.03 -276.20,2232.49 -414.30,2312.23 -552.40,2232.49 -552.40,2073.03 -414.30,1993.30" fill="url(#bm11g6)" stroke="url(#bm11g6)" stroke-width="2.96"/><polygon points="0.00,2073.03 0.00,2232.49 -138.10,2312.23 -276.20,2232.49 -276.20,2073.03 -138.10,1993.30" fill="url(#bm11g6)" stroke="url(#bm11g6)" stroke-width="2.96"/><polygon points="276.20,2073.03 276.20,2232.49 138.10,2312.23 0.00,2232.49 0.00,2073.03 138.10,1993.30" fill="url(#bm11g6)" stroke="url(#bm11g6)" stroke-width="2.96"/><polygon points="552.40,2073.03 552.40,2232.49 414.30,2312.23 276.20,2232.49 276.20,2073.03 414.30,1993.30" fill="url(#bm11g6)" stroke="url(#bm11g6)" stroke-width="2.96"/><polygon points="828.60,2073.03 828.60,2232.49 690.50,2312.23 552.40,2232.49 552.40,2073.03 690.50,1993.30" fill="url(#bm11g6)" stroke="url(#bm11g6)" stroke-width="2.96"/><polygon points="1104.80,2073.03 1104.80,2232.49 966.70,2312.23 828.60,2232.49 828.60,2073.03 966.70,1993.30" fill="url(#bm11g6)" stroke="url(#bm11g6)" stroke-width="2.96"/><polygon points="1381.00,2073.03 1381.00,2232.49 1242.90,2312.23 1104.80,2232.49 1104.80,2073.03 1242.90,1993.30" fill="url(#bm11g6)" stroke="url(#bm11g6)" stroke-width="2.96"/><polygon points="1657.20,2073.03 1657.20,2232.49 1519.10,2312.23 1381.00,2232.49 1381.00,2073.03 1519.10,1993.30" fill="url(#bm11g6)" stroke="url(#bm11g6)" stroke-width="2.96"/><polygon points="1933.40,2073.03 1933.40,2232.49 1795.30,2312.23 1657.20,2232.49 1657.20,2073.03 1795.30,1993.30" fill="url(#bm11g6)" stroke="url(#bm11g6)" stroke-width="2.96"/><polygon points="2209.60,2073.03 2209.60,2232.49 2071.50,2312.23 1933.40,2232.49 1933.40,2073.03 2071.50,1993.30" fill="url(#bm11g6)" stroke="url(#bm11g6)" stroke-width="2.96"/><polygon points="2485.79,2073.03 2485.79,2232.49 2347.70,2312.23 2209.60,2232.49 2209.60,2073.03 2347.70,1993.30" fill="url(#bm11g6)" stroke="url(#bm11g6)" stroke-width="2.96"/><polygon points="2761.99,2073.03 2761.99,2232.49 2623.89,2312.23 2485.79,2232.49 2485.79,2073.03 2623.89,1993.30" fill="url(#bm11g6)" stroke="url(#bm11g6)" stroke-width="2.96"/><polygon points="3038.19,2073.03 3038.19,2232.49 2900.09,2312.23 2761.99,2232.49 2761.99,2073.03 2900.09,1993.30" fill="url(#bm11g6)" stroke="url(#bm11g6)" stroke-width="2.96"/><polygon points="3314.39,2073.03 3314.39,2232.49 3176.29,2312.23 3038.19,2232.49 3038.19,2073.03 3176.29,1993.30" fill="url(#bm11g6)" stroke="url(#bm11g6)" stroke-width="2.96"/><polygon points="3590.59,2073.03 3590.59,2232.49 3452.49,2312.23 3314.39,2232.49 3314.39,2073.03 3452.49,1993.30" fill="url(#bm11g6)" stroke="url(#bm11g6)" stroke-width="2.96"/><polygon points="3866.79,2073.03 3866.79,2232.49 3728.69,2312.23 3590.59,2232.49 3590.59,2073.03 3728.69,1993.30" fill="url(#bm11g6)" stroke="url(#bm11g6)" stroke-width="2.96"/><polygon points="4142.99,2073.03 4142.99,2232.49 4004.89,2312.23 3866.79,2232.49 3866.79,2073.03 4004.89,1993.30" fill="url(#bm11g6)" stroke="url(#bm11g6)" stroke-width="2.96"/><polygon points="-2071.50,2312.23 -2071.50,2471.69 -2209.60,2551.42 -2347.70,2471.69 -2347.70,2312.23 -2209.60,2232.49" fill="url(#bm11g6)" stroke="url(#bm11g6)" stroke-width="2.96"/><polygon points="-1795.30,2312.23 -1795.30,2471.69 -1933.40,2551.42 -2071.50,2471.69 -2071.50,2312.23 -1933.40,2232.49" fill="url(#bm11g6)" stroke="url(#bm11g6)" stroke-width="2.96"/><polygon points="-1519.10,2312.23 -1519.10,2471.69 -1657.20,2551.42 -1795.30,2471.69 -1795.30,2312.23 -1657.20,2232.49" fill="url(#bm11g6)" stroke="url(#bm11g6)" stroke-width="2.96"/><polygon points="-1242.90,2312.23 -1242.90,2471.69 -1381.00,2551.42 -1519.10,2471.69 -1519.10,2312.23 -1381.00,2232.49" fill="url(#bm11g6)" stroke="url(#bm11g6)" stroke-width="2.96"/><polygon points="-966.70,2312.23 -966.70,2471.69 -1104.80,2551.42 -1242.90,2471.69 -1242.90,2312.23 -1104.80,2232.49" fill="url(#bm11g6)" stroke="url(#bm11g6)" stroke-width="2.96"/><polygon points="-690.50,2312.23 -690.50,2471.69 -828.60,2551.42 -966.70,2471.69 -966.70,2312.23 -828.60,2232.49" fill="url(#bm11g6)" stroke="url(#bm11g6)" stroke-width="2.96"/><polygon points="-414.30,2312.23 -414.30,2471.69 -552.40,2551.42 -690.50,2471.69 -690.50,2312.23 -552.40,2232.49" fill="url(#bm11g6)" stroke="url(#bm11g6)" stroke-width="2.96"/><polygon points="-138.10,2312.23 -138.10,2471.69 -276.20,2551.42 -414.30,2471.69 -414.30,2312.23 -276.20,2232.49" fill="url(#bm11g6)" stroke="url(#bm11g6)" stroke-width="2.96"/><polygon points="138.10,2312.23 138.10,2471.69 0.00,2551.42 -138.10,2471.69 -138.10,2312.23 -0.00,2232.49" fill="url(#bm11g6)" stroke="url(#bm11g6)" stroke-width="2.96"/><polygon points="414.30,2312.23 414.30,2471.69 276.20,2551.42 138.10,2471.69 138.10,2312.23 276.20,2232.49" fill="url(#bm11g6)" stroke="url(#bm11g6)" stroke-width="2.96"/><polygon points="690.50,2312.23 690.50,2471.69 552.40,2551.42 414.30,2471.69 414.30,2312.23 552.40,2232.49" fill="url(#bm11g6)" stroke="url(#bm11g6)" stroke-width="2.96"/><polygon points="966.70,2312.23 966.70,2471.69 828.60,2551.42 690.50,2471.69 690.50,2312.23 828.60,2232.49" fill="url(#bm11g6)" stroke="url(#bm11g6)" stroke-width="2.96"/><polygon points="1242.90,2312.23 1242.90,2471.69 1104.80,2551.42 966.70,2471.69 966.70,2312.23 1104.80,2232.49" fill="url(#bm11g6)" stroke="url(#bm11g6)" stroke-width="2.96"/><polygon points="1519.10,2312.23 1519.10,2471.69 1381.00,2551.42 1242.90,2471.69 1242.90,2312.23 1381.00,2232.49" fill="url(#bm11g6)" stroke="url(#bm11g6)" stroke-width="2.96"/><polygon points="1795.30,2312.23 1795.30,2471.69 1657.20,2551.42 1519.10,2471.69 1519.10,2312.23 1657.20,2232.49" fill="url(#bm11g6)" stroke="url(#bm11g6)" stroke-width="2.96"/><polygon points="2071.50,2312.23 2071.50,2471.69 1933.40,2551.42 1795.30,2471.69 1795.30,2312.23 1933.40,2232.49" fill="url(#bm11g6)" stroke="url(#bm11g6)" stroke-width="2.96"/><polygon points="2347.70,2312.23 2347.70,2471.69 2209.60,2551.42 2071.50,2471.69 2071.50,2312.23 2209.60,2232.49" fill="url(#bm11g6)" stroke="url(#bm11g6)" stroke-width="2.96"/><polygon points="2623.89,2312.23 2623.89,2471.69 2485.79,2551.42 2347.70,2471.69 2347.70,2312.23 2485.79,2232.49" fill="url(#bm11g6)" stroke="url(#bm11g6)" stroke-width="2.96"/><polygon points="2900.09,2312.23 2900.09,2471.69 2761.99,2551.42 2623.89,2471.69 2623.89,2312.23 2761.99,2232.49" fill="url(#bm11g6)" stroke="url(#bm11g6)" stroke-width="2.96"/><polygon points="3176.29,2312.23 3176.29,2471.69 3038.19,2551.42 2900.09,2471.69 2900.09,2312.23 3038.19,2232.49" fill="url(#bm11g6)" stroke="url(#bm11g6)" stroke-width="2.96"/><polygon points="3452.49,2312.23 3452.49,2471.69 3314.39,2551.42 3176.29,2471.69 3176.29,2312.23 3314.39,2232.49" fill="url(#bm11g6)" stroke="url(#bm11g6)" stroke-width="2.96"/><polygon points="3728.69,2312.23 3728.69,2471.69 3590.59,2551.42 3452.49,2471.69 3452.49,2312.23 3590.59,2232.49" fill="url(#bm11g6)" stroke="url(#bm11g6)" stroke-width="2.96"/><polygon points="4004.89,2312.23 4004.89,2471.69 3866.79,2551.42 3728.69,2471.69 3728.69,2312.23 3866.79,2232.49" fill="url(#bm11g6)" stroke="url(#bm11g6)" stroke-width="2.96"/></g></g><metadata><evolvesvg:genome xmlns:evolvesvg="https://evolvesvg">{"palette":[{"h":342.7739651310743,"s":86.83608249478426,"l":46.83676145802969},{"h":308.8649767001152,"s":10,"l":95},{"h":110.33968676318392,"s":66.25144338685828,"l":95},{"h":268.81440315364057,"s":19.837815920805475,"l":18.65111427851321}],"background":{"type":"solid","paletteIdx":0,"paletteIdx2":1,"angle":163.50235763189744},"layers":[{"type":"circle","cx":0.4559216468968148,"cy":0.2543593326099687,"params":{"r":0.3447270789580581},"fill":{"type":"radial","paletteIdx":0,"paletteIdx2":0,"alpha":0.9688192520389283,"angle":266.5524623079425},"stroke":{"paletteIdx":1,"width":0.02816061090469829,"alpha":0.9300789571236634},"opacity":0.9861652773304681,"blendMode":"difference","transform":{"rotate":300.81092102660966,"scaleX":1.947309262941434,"scaleY":2.4081247898953886},"arrangement":"grid","arrangementParams":{"nx":3,"ny":4},"displace":{"scale":154.92259921409388,"baseFreq":0.029533336357000003,"octaves":1},"colorShift":{"hueRotate":158.68532272432446,"saturate":3.6619692841399427},"convolve":{"type":"edge"},"componentTransfer":{"rExp":0.35055155091692514,"gExp":1.0394435463567668,"bExp":3.494684411580496},"dash":{"len":16.712694898727314,"gap":0.5}},{"type":"crosshatch","cx":0.8982468931642683,"cy":0.12200573495449729,"params":{"spacing":3.859047007522071,"lineWidth":10.530787267940282,"angle":36.428519856495804},"fill":{"type":"linear","paletteIdx":0,"paletteIdx2":2,"alpha":0.4408952168642333,"angle":76.72387060862263},"stroke":{"paletteIdx":2,"width":0.01290311877352561,"alpha":0.5295256937235047},"opacity":0.8441194676255376,"blendMode":"normal","transform":{"rotate":307.47292031498546,"scaleX":2.242401331718409,"scaleY":2.253883580212548},"arrangement":"radial","arrangementParams":{"count":7},"colorShift":{"hueRotate":322.8274231649443,"saturate":1.0956150815951726},"dash":{"len":23.605087616589714,"gap":9.16900159882771},"displace":{"scale":26.447308389405478,"baseFreq":0.08694132544058875,"octaves":2},"componentTransfer":{"rExp":0.8450559495345984,"gExp":1.5793952483156806,"bExp":2.5149274195891524},"morph":{"operator":"dilate","radiusX":8.857440949825968,"radiusY":11.784176611612642}},{"type":"hexgrid","cx":0.257057501979855,"cy":0.7899109632932568,"params":{"size":53.15460677049561,"lineWidth":0.986218215259542,"filled":true},"fill":{"type":"radial","paletteIdx":1,"paletteIdx2":0,"alpha":0.5984404813893291,"angle":43.90994183483576},"stroke":{"paletteIdx":1,"width":0.006751532499723984,"alpha":0.38123103268090563},"opacity":0.48504901974410514,"blendMode":"overlay","transform":{"rotate":329.7291997452992,"scaleX":0.24246789700506585,"scaleY":1.192574515303659},"arrangement":"grid","arrangementParams":{"nx":5,"ny":3},"morph":{"operator":"erode","radiusX":5.444165183468958,"radiusY":20.235825420018113},"componentTransfer":{"rExp":2.4383855542336086,"gExp":0.8815565270897661,"bExp":2.339181229893792}}]}</evolvesvg:genome></metadata></svg>