<svg viewBox="0 0 1920 1080" xmlns="http://www.w3.org/2000/svg" width="1920" height="1080" preserveAspectRatio="xMidYMid slice"><defs><linearGradient id="bm12g1" x1="76.24008331133052%" y1="92.56122681284498%" x2="23.759916688669485%" y2="7.438773187155029%"><stop offset="0%" stop-color="hsla(203.6,92.8%,15.7%,1.000)"/><stop offset="100%" stop-color="hsla(130.5,37.9%,95.0%,1.000)"/></linearGradient><filter id="bm12g2" x="-30%" y="-30%" width="160%" height="160%"><feMorphology in="SourceGraphic" operator="erode" radius="6.6 4.9" result="morph"/></filter><radialGradient id="bm12g3" cx="50%" cy="50%" r="50%"><stop offset="0%" stop-color="hsla(203.6,92.8%,15.7%,0.248)"/><stop offset="100%" stop-color="hsla(203.6,92.8%,15.7%,0.248)"/></radialGradient><pattern id="bm12g4" x="0" y="0" width="476.55" height="250.73464875202012" patternUnits="userSpaceOnUse"><path d="M 0 125.36732437601006 L 3.0 127.9 L 6.0 130.3 L 9.0 132.8 L 12.0 135.3 L 15.0 137.7 L 18.0 140.2 L 21.0 142.6 L 24.0 144.9 L 27.0 147.3 L 30.0 149.6 L 33.0 151.9 L 36.0 154.1 L 39.0 156.3 L 42.0 158.4 L 45.0 160.5 L 48.0 162.6 L 51.0 164.5 L 54.0 166.5 L 57.0 168.3 L 60.0 170.1 L 63.0 171.8 L 66.0 173.4 L 69.0 175.0 L 72.0 176.5 L 75.0 177.9 L 78.0 179.2 L 81.0 180.5 L 84.0 181.6 L 87.0 182.7 L 90.0 183.7 L 93.0 184.6 L 96.0 185.4 L 99.0 186.1 L 102.0 186.7 L 105.0 187.2 L 108.0 187.6 L 111.0 187.9 L 114.0 188.1 L 117.0 188.2 L 120.0 188.3 L 123.0 188.2 L 126.0 188.0 L 129.0 187.7 L 132.0 187.4 L 135.0 186.9 L 138.0 186.3 L 141.0 185.7 L 144.0 184.9 L 147.0 184.1 L 150.0 183.1 L 153.0 182.1 L 156.0 181.0 L 159.0 179.8 L 162.0 178.5 L 165.0 177.1 L 168.0 175.6 L 171.0 174.1 L 174.0 172.5 L 177.0 170.8 L 180.0 169.1 L 183.0 167.2 L 186.0 165.4 L 189.0 163.4 L 192.0 161.4 L 195.0 159.3 L 198.0 157.2 L 201.0 155.0 L 204.0 152.8 L 207.0 150.6 L 210.0 148.3 L 213.0 145.9 L 216.0 143.6 L 219.0 141.2 L 222.0 138.8 L 225.0 136.3 L 228.0 133.9 L 231.0 131.4 L 234.0 128.9 L 237.0 126.4 L 240.0 123.9 L 243.0 121.5 L 246.0 119.0 L 249.0 116.5 L 252.0 114.0 L 255.0 111.6 L 258.0 109.2 L 261.0 106.8 L 264.0 104.4 L 267.0 102.1 L 270.0 99.8 L 273.0 97.6 L 276.0 95.4 L 279.0 93.2 L 282.0 91.1 L 285.0 89.0 L 288.0 87.0 L 291.0 85.1 L 294.0 83.2 L 297.0 81.4 L 300.0 79.7 L 303.0 78.0 L 306.0 76.4 L 309.0 74.9 L 312.0 73.4 L 315.0 72.1 L 318.0 70.8 L 321.0 69.6 L 324.0 68.5 L 327.0 67.5 L 330.0 66.5 L 333.0 65.7 L 336.0 65.0 L 339.0 64.3 L 342.0 63.8 L 345.0 63.3 L 348.0 63.0 L 351.0 62.7 L 354.0 62.5 L 357.0 62.5 L 360.0 62.5 L 363.0 62.7 L 366.0 62.9 L 369.0 63.2 L 372.0 63.6 L 375.0 64.2 L 378.0 64.8 L 381.0 65.5 L 384.0 66.3 L 387.0 67.2 L 390.0 68.2 L 393.0 69.3 L 396.0 70.4 L 399.0 71.7 L 402.0 73.0 L 405.0 74.5 L 408.0 76.0 L 411.0 77.5 L 414.0 79.2 L 417.0 80.9 L 420.0 82.7 L 423.0 84.6 L 426.0 86.5 L 429.0 88.5 L 432.0 90.5 L 435.0 92.6 L 438.0 94.8 L 441.0 97.0 L 444.0 99.2 L 447.0 101.5 L 450.0 103.8 L 453.0 106.2 L 456.0 108.5 L 459.0 110.9 L 462.0 113.4 L 465.0 115.8 L 468.0 118.3 L 471.0 120.8 L 474.0 123.3 L 477.0 125.7" fill="none" stroke="url(#bm12g3)" stroke-width="4.28"/></pattern><filter id="bm12g5" x="-30%" y="-30%" width="160%" height="160%"><feColorMatrix in="SourceGraphic" type="hueRotate" values="329.2" result="hued"/><feColorMatrix in="hued" type="saturate" values="0.64" result="sat"/></filter><linearGradient id="bm12g6" x1="1143.3" y1="1070.1" x2="776.7" y2="9.9" gradientUnits="userSpaceOnUse"><stop offset="0%" stop-color="white"/><stop offset="100%" stop-color="black"/></linearGradient><mask id="bm12g7"><rect x="-1920" y="-1080" width="5760" height="3240" fill="url(#bm12g6)"/></mask><pattern id="bm12g8" x="0" y="0" width="13.548916427696033" height="13.548916427696033" patternUnits="userSpaceOnUse" patternTransform="rotate(49.2)"><line x1="0" y1="0" x2="0" y2="13.548916427696033" stroke="hsla(203.6,92.8%,15.7%,0.867)" stroke-width="2.02"/><line x1="0" y1="0" x2="13.548916427696033" y2="0" stroke="hsla(203.6,92.8%,15.7%,0.867)" stroke-width="2.02"/></pattern><filter id="bm12g9" x="-30%" y="-30%" width="160%" height="160%"><feTurbulence type="fractalNoise" baseFrequency="0.0651" numOctaves="3" result="noise"/><feDisplacementMap in="SourceGraphic" in2="noise" scale="42.0" xChannelSelector="R" yChannelSelector="G" result="disp"/></filter><linearGradient id="bm12g10" x1="1.2183191735115673%" y1="39.029693908435796%" x2="98.78168082648844%" y2="60.97030609156421%"><stop offset="0%" stop-color="hsla(203.6,92.8%,15.7%,0.635)"/><stop offset="100%" stop-color="hsla(130.5,37.9%,95.0%,0.635)"/></linearGradient><filter id="bm12g11" x="-30%" y="-30%" width="160%" height="160%"><feMorphology in="SourceGraphic" operator="erode" radius="9.3 8.2" result="morph"/><feConvolveMatrix in="morph" order="3" kernelMatrix="-1 -1 -1 -1 8 -1 -1 -1 -1" preserveAlpha="true" result="conv"/></filter></defs><rect width="1920" height="1080" fill="url(#bm12g1)"/><g filter="url(#bm12g2)" ><g transform="translate(0.00,0.00) rotate(80.40) scale(1.473,1.159)" fill="hsla(203.6,92.8%,15.7%,0.655)" stroke="hsla(203.6,92.8%,15.7%,0.800)" stroke-width="43.27" opacity="0.534" style="mix-blend-mode:color-dodge"><ellipse cx="0" cy="0" rx="453.57" ry="224.39"/></g><g transform="translate(480.00,0.00) rotate(80.40) scale(1.473,1.159)" fill="hsla(203.6,92.8%,15.7%,0.655)" stroke="hsla(203.6,92.8%,15.7%,0.800)" stroke-width="43.27" opacity="0.534" style="mix-blend-mode:color-dodge"><ellipse cx="0" cy="0" rx="453.57" ry="224.39"/></g><g transform="translate(960.00,0.00) rotate(80.40) scale(1.473,1.159)" fill="hsla(203.6,92.8%,15.7%,0.655)" stroke="hsla(203.6,92.8%,15.7%,0.800)" stroke-width="43.27" opacity="0.534" style="mix-blend-mode:color-dodge"><ellipse cx="0" cy="0" rx="453.57" ry="224.39"/></g><g transform="translate(1440.00,0.00) rotate(80.40) scale(1.473,1.159)" fill="hsla(203.6,92.8%,15.7%,0.655)" stroke="hsla(203.6,92.8%,15.7%,0.800)" stroke-width="43.27" opacity="0.534" style="mix-blend-mode:color-dodge"><ellipse cx="0" cy="0" rx="453.57" ry="224.39"/></g><g transform="translate(1920.00,0.00) rotate(80.40) scale(1.473,1.159)" fill="hsla(203.6,92.8%,15.7%,0.655)" stroke="hsla(203.6,92.8%,15.7%,0.800)" stroke-width="43.27" opacity="0.534" style="mix-blend-mode:color-dodge"><ellipse cx="0" cy="0" rx="453.57" ry="224.39"/></g><g transform="translate(0.00,270.00) rotate(80.40) scale(1.473,1.159)" fill="hsla(203.6,92.8%,15.7%,0.655)" stroke="hsla(203.6,92.8%,15.7%,0.800)" stroke-width="43.27" opacity="0.534" style="mix-blend-mode:color-dodge"><ellipse cx="0" cy="0" rx="453.57" ry="224.39"/></g><g transform="translate(480.00,270.00) rotate(80.40) scale(1.473,1.159)" fill="hsla(203.6,92.8%,15.7%,0.655)" stroke="hsla(203.6,92.8%,15.7%,0.800)" stroke-width="43.27" opacity="0.534" style="mix-blend-mode:color-dodge"><ellipse cx="0" cy="0" rx="453.57" ry="224.39"/></g><g transform="translate(960.00,270.00) rotate(80.40) scale(1.473,1.159)" fill="hsla(203.6,92.8%,15.7%,0.655)" stroke="hsla(203.6,92.8%,15.7%,0.800)" stroke-width="43.27" opacity="0.534" style="mix-blend-mode:color-dodge"><ellipse cx="0" cy="0" rx="453.57" ry="224.39"/></g><g transform="translate(1440.00,270.00) rotate(80.40) scale(1.473,1.159)" fill="hsla(203.6,92.8%,15.7%,0.655)" stroke="hsla(203.6,92.8%,15.7%,0.800)" stroke-width="43.27" opacity="0.534" style="mix-blend-mode:color-dodge"><ellipse cx="0" cy="0" rx="453.57" ry="224.39"/></g><g transform="translate(1920.00,270.00) rotate(80.40) scale(1.473,1.159)" fill="hsla(203.6,92.8%,15.7%,0.655)" stroke="hsla(203.6,92.8%,15.7%,0.800)" stroke-width="43.27" opacity="0.534" style="mix-blend-mode:color-dodge"><ellipse cx="0" cy="0" rx="453.57" ry="224.39"/></g><g transform="translate(0.00,540.00) rotate(80.40) scale(1.473,1.159)" fill="hsla(203.6,92.8%,15.7%,0.655)" stroke="hsla(203.6,92.8%,15.7%,0.800)" stroke-width="43.27" opacity="0.534" style="mix-blend-mode:color-dodge"><ellipse cx="0" cy="0" rx="453.57" ry="224.39"/></g><g transform="translate(480.00,540.00) rotate(80.40) scale(1.473,1.159)" fill="hsla(203.6,92.8%,15.7%,0.655)" stroke="hsla(203.6,92.8%,15.7%,0.800)" stroke-width="43.27" opacity="0.534" style="mix-blend-mode:color-dodge"><ellipse cx="0" cy="0" rx="453.57" ry="224.39"/></g><g transform="translate(960.00,540.00) rotate(80.40) scale(1.473,1.159)" fill="hsla(203.6,92.8%,15.7%,0.655)" stroke="hsla(203.6,92.8%,15.7%,0.800)" stroke-width="43.27" opacity="0.534" style="mix-blend-mode:color-dodge"><ellipse cx="0" cy="0" rx="453.57" ry="224.39"/></g><g transform="translate(1440.00,540.00) rotate(80.40) scale(1.473,1.159)" fill="hsla(203.6,92.8%,15.7%,0.655)" stroke="hsla(203.6,92.8%,15.7%,0.800)" stroke-width="43.27" opacity="0.534" style="mix-blend-mode:color-dodge"><ellipse cx="0" cy="0" rx="453.57" ry="224.39"/></g><g transform="translate(1920.00,540.00) rotate(80.40) scale(1.473,1.159)" fill="hsla(203.6,92.8%,15.7%,0.655)" stroke="hsla(203.6,92.8%,15.7%,0.800)" stroke-width="43.27" opacity="0.534" style="mix-blend-mode:color-dodge"><ellipse cx="0" cy="0" rx="453.57" ry="224.39"/></g><g transform="translate(0.00,810.00) rotate(80.40) scale(1.473,1.159)" fill="hsla(203.6,92.8%,15.7%,0.655)" stroke="hsla(203.6,92.8%,15.7%,0.800)" stroke-width="43.27" opacity="0.534" style="mix-blend-mode:color-dodge"><ellipse cx="0" cy="0" rx="453.57" ry="224.39"/></g><g transform="translate(480.00,810.00) rotate(80.40) scale(1.473,1.159)" fill="hsla(203.6,92.8%,15.7%,0.655)" stroke="hsla(203.6,92.8%,15.7%,0.800)" stroke-width="43.27" opacity="0.534" style="mix-blend-mode:color-dodge"><ellipse cx="0" cy="0" rx="453.57" ry="224.39"/></g><g transform="translate(960.00,810.00) rotate(80.40) scale(1.473,1.159)" fill="hsla(203.6,92.8%,15.7%,0.655)" stroke="hsla(203.6,92.8%,15.7%,0.800)" stroke-width="43.27" opacity="0.534" style="mix-blend-mode:color-dodge"><ellipse cx="0" cy="0" rx="453.57" ry="224.39"/></g><g transform="translate(1440.00,810.00) rotate(80.40) scale(1.473,1.159)" fill="hsla(203.6,92.8%,15.7%,0.655)" stroke="hsla(203.6,92.8%,15.7%,0.800)" stroke-width="43.27" opacity="0.534" style="mix-blend-mode:color-dodge"><ellipse cx="0" cy="0" rx="453.57" ry="224.39"/></g><g transform="translate(1920.00,810.00) rotate(80.40) scale(1.473,1.159)" fill="hsla(203.6,92.8%,15.7%,0.655)" stroke="hsla(203.6,92.8%,15.7%,0.800)" stroke-width="43.27" opacity="0.534" style="mix-blend-mode:color-dodge"><ellipse cx="0" cy="0" rx="453.57" ry="224.39"/></g><g transform="translate(0.00,1080.00) rotate(80.40) scale(1.473,1.159)" fill="hsla(203.6,92.8%,15.7%,0.655)" stroke="hsla(203.6,92.8%,15.7%,0.800)" stroke-width="43.27" opacity="0.534" style="mix-blend-mode:color-dodge"><ellipse cx="0" cy="0" rx="453.57" ry="224.39"/></g><g transform="translate(480.00,1080.00) rotate(80.40) scale(1.473,1.159)" fill="hsla(203.6,92.8%,15.7%,0.655)" stroke="hsla(203.6,92.8%,15.7%,0.800)" stroke-width="43.27" opacity="0.534" style="mix-blend-mode:color-dodge"><ellipse cx="0" cy="0" rx="453.57" ry="224.39"/></g><g transform="translate(960.00,1080.00) rotate(80.40) scale(1.473,1.159)" fill="hsla(203.6,92.8%,15.7%,0.655)" stroke="hsla(203.6,92.8%,15.7%,0.800)" stroke-width="43.27" opacity="0.534" style="mix-blend-mode:color-dodge"><ellipse cx="0" cy="0" rx="453.57" ry="224.39"/></g><g transform="translate(1440.00,1080.00) rotate(80.40) scale(1.473,1.159)" fill="hsla(203.6,92.8%,15.7%,0.655)" stroke="hsla(203.6,92.8%,15.7%,0.800)" stroke-width="43.27" opacity="0.534" style="mix-blend-mode:color-dodge"><ellipse cx="0" cy="0" rx="453.57" ry="224.39"/></g><g transform="translate(1920.00,1080.00) rotate(80.40) scale(1.473,1.159)" fill="hsla(203.6,92.8%,15.7%,0.655)" stroke="hsla(203.6,92.8%,15.7%,0.800)" stroke-width="43.27" opacity="0.534" style="mix-blend-mode:color-dodge"><ellipse cx="0" cy="0" rx="453.57" ry="224.39"/></g></g><g opacity="0.730" style="mix-blend-mode:overlay" filter="url(#bm12g5)" mask="url(#bm12g7)"><rect x="-1920" y="-1080" width="5760" height="3240" fill="url(#bm12g4)"/></g><g opacity="0.663" style="mix-blend-mode:difference" filter="url(#bm12g9)" ><rect x="-1920" y="-1080" width="5760" height="3240" fill="url(#bm12g8)"/></g><g filter="url(#bm12g11)" ><g transform="translate(0.00,0.00) rotate(249.55) scale(0.799,1.911)" fill="url(#bm12g10)" stroke="hsla(203.6,92.8%,15.7%,0.402)" stroke-width="3.95" opacity="0.487" style="mix-blend-mode:overlay"><path d="M 378.3 -596.8 L 631.4 -29.1 L -775.0 87.7 Z"/></g><g transform="translate(640.00,0.00) rotate(249.55) scale(0.799,1.911)" fill="url(#bm12g10)" stroke="hsla(203.6,92.8%,15.7%,0.402)" stroke-width="3.95" opacity="0.487" style="mix-blend-mode:overlay"><path d="M 378.3 -596.8 L 631.4 -29.1 L -775.0 87.7 Z"/></g><g transform="translate(1280.00,0.00) rotate(249.55) scale(0.799,1.911)" fill="url(#bm12g10)" stroke="hsla(203.6,92.8%,15.7%,0.402)" stroke-width="3.95" opacity="0.487" style="mix-blend-mode:overlay"><path d="M 378.3 -596.8 L 631.4 -29.1 L -775.0 87.7 Z"/></g><g transform="translate(1920.00,0.00) rotate(249.55) scale(0.799,1.911)" fill="url(#bm12g10)" stroke="hsla(203.6,92.8%,15.7%,0.402)" stroke-width="3.95" opacity="0.487" style="mix-blend-mode:overlay"><path d="M 378.3 -596.8 L 631.4 -29.1 L -775.0 87.7 Z"/></g><g transform="translate(0.00,540.00) rotate(249.55) scale(0.799,1.911)" fill="url(#bm12g10)" stroke="hsla(203.6,92.8%,15.7%,0.402)" stroke-width="3.95" opacity="0.487" style="mix-blend-mode:overlay"><path d="M 378.3 -596.8 L 631.4 -29.1 L -775.0 87.7 Z"/></g><g transform="translate(640.00,540.00) rotate(249.55) scale(0.799,1.911)" fill="url(#bm12g10)" stroke="hsla(203.6,92.8%,15.7%,0.402)" stroke-width="3.95" opacity="0.487" style="mix-blend-mode:overlay"><path d="M 378.3 -596.8 L 631.4 -29.1 L -775.0 87.7 Z"/></g><g transform="translate(1280.00,540.00) rotate(249.55) scale(0.799,1.911)" fill="url(#bm12g10)" stroke="hsla(203.6,92.8%,15.7%,0.402)" stroke-width="3.95" opacity="0.487" style="mix-blend-mode:overlay"><path d="M 378.3 -596.8 L 631.4 -29.1 L -775.0 87.7 Z"/></g><g transform="translate(1920.00,540.00) rotate(249.55) scale(0.799,1.911)" fill="url(#bm12g10)" stroke="hsla(203.6,92.8%,15.7%,0.402)" stroke-width="3.95" opacity="0.487" style="mix-blend-mode:overlay"><path d="M 378.3 -596.8 L 631.4 -29.1 L -775.0 87.7 Z"/></g><g transform="translate(0.00,1080.00) rotate(249.55) scale(0.799,1.911)" fill="url(#bm12g10)" stroke="hsla(203.6,92.8%,15.7%,0.402)" stroke-width="3.95" opacity="0.487" style="mix-blend-mode:overlay"><path d="M 378.3 -596.8 L 631.4 -29.1 L -775.0 87.7 Z"/></g><g transform="translate(640.00,1080.00) rotate(249.55) scale(0.799,1.911)" fill="url(#bm12g10)" stroke="hsla(203.6,92.8%,15.7%,0.402)" stroke-width="3.95" opacity="0.487" style="mix-blend-mode:overlay"><path d="M 378.3 -596.8 L 631.4 -29.1 L -775.0 87.7 Z"/></g><g transform="translate(1280.00,1080.00) rotate(249.55) scale(0.799,1.911)" fill="url(#bm12g10)" stroke="hsla(203.6,92.8%,15.7%,0.402)" stroke-width="3.95" opacity="0.487" style="mix-blend-mode:overlay"><path d="M 378.3 -596.8 L 631.4 -29.1 L -775.0 87.7 Z"/></g><g transform="translate(1920.00,1080.00) rotate(249.55) scale(0.799,1.911)" fill="url(#bm12g10)" stroke="hsla(203.6,92.8%,15.7%,0.402)" stroke-width="3.95" opacity="0.487" style="mix-blend-mode:overlay"><path d="M 378.3 -596.8 L 631.4 -29.1 L -775.0 87.7 Z"/></g></g><metadata><evolvesvg:genome xmlns:evolvesvg="https://evolvesvg">{"palette":[{"h":203.62431481338922,"s":92.75351578339664,"l":15.668752845747205},{"h":130.53418280362735,"s":37.88561087709977,"l":95}],"background":{"type":"linear","paletteIdx":0,"paletteIdx2":1,"angle":238.3451075182927},"layers":[{"type":"ellipse","cx":0.13841948216459043,"cy":0.2756408853537237,"params":{"rx":0.23623594947307378,"ry":0.11687201563302728},"fill":{"type":"solid","paletteIdx":0,"paletteIdx2":2,"alpha":0.655185265400142,"angle":44.01164996212108},"stroke":{"paletteIdx":2,"width":0.022536779307214507,"alpha":0.8000277490787142},"opacity":0.5343920203128699,"blendMode":"color-dodge","transform":{"rotate":80.3974440014843,"scaleX":1.4732661622191343,"scaleY":1.1587472048586072},"arrangement":"grid","arrangementParams":{"nx":5,"ny":5},"morph":{"operator":"erode","radiusX":6.6466658557084966,"radiusY":4.920758026440993}},{"type":"waves","cx":0.10666336950155765,"cy":0.08493939961098569,"params":{"spacing":83.57821625067338,"amplitude":20.96254744897093,"frequency":4.02897844601669,"lineWidth":1.4260268484401544},"fill":{"type":"radial","paletteIdx":2,"paletteIdx2":2,"alpha":0.24844525570446976,"angle":352.57406424027045},"stroke":{"paletteIdx":1,"width":0.005003456204290628,"alpha":0.0402635859747749},"opacity":0.7301121918932894,"blendMode":"overlay","transform":{"rotate":338.0229851185877,"scaleX":1.6661022728369537,"scaleY":1.264724496979805},"arrangement":"grid","arrangementParams":{"nx":2,"ny":5},"mask":{"type":"linear","cx":0.2099170467868513,"cy":0.24772317074552058,"r":0.8957622488784307,"angle":258.9927990529552},"colorShift":{"hueRotate":329.2407767566308,"saturate":0.6392097839175579}},{"type":"crosshatch","cx":0.32728418059505093,"cy":1,"params":{"spacing":4.516305475898678,"lineWidth":0.6724932485371554,"angle":49.18737350045977},"fill":{"type":"solid","paletteIdx":0,"paletteIdx2":0,"alpha":0.8665742932833036,"angle":119.40429914956059},"stroke":{"paletteIdx":0,"width":0.0022716860836658765,"alpha":0.004954841793094011},"opacity":0.6630262122915498,"blendMode":"difference","transform":{"rotate":8.981045516586107,"scaleX":0.3135271484786875,"scaleY":0.8019893414708026},"arrangement":"scatter","arrangementParams":{"count":3},"displace":{"scale":41.9579697982416,"baseFreq":0.06511881806615366,"octaves":3}},{"type":"path","cx":0.17653957003051313,"cy":0.829802661690214,"params":{"pts":[[0.6970334351641934,0.18917695694505451],[0.8288412179996729,0.4848385642369599],[0.09636320002008353,0.5456820511998852]]},"fill":{"type":"linear","paletteIdx":0,"paletteIdx2":1,"alpha":0.6354457721034481,"angle":12.674154077331025},"stroke":{"paletteIdx":2,"width":0.00205980245994712,"alpha":0.40191153251076933},"opacity":0.4869086507569961,"blendMode":"overlay","transform":{"rotate":249.54941590942792,"scaleX":0.7992256635246996,"scaleY":1.9110769996259398},"arrangement":"grid","arrangementParams":{"nx":4,"ny":3},"morph":{"operator":"erode","radiusX":9.29569852425525,"radiusY":8.240069927306388},"convolve":{"type":"edge"}}]}</evolvesvg:genome></metadata></svg>