<svg viewBox="0 0 1920 1080" xmlns="http://www.w3.org/2000/svg" width="1920" height="1080" preserveAspectRatio="xMidYMid slice"><defs><linearGradient id="bm13g1" x1="32.32851320488016%" y1="96.77305372166656%" x2="67.67148679511983%" y2="3.2269462783334477%"><stop offset="0%" stop-color="hsla(273.9,52.3%,5.0%,1.000)"/><stop offset="100%" stop-color="hsla(269.3,81.4%,79.2%,1.000)"/></linearGradient><radialGradient id="bm13g2" cx="50%" cy="50%" r="50%"><stop offset="0%" stop-color="hsla(87.9,77.6%,86.4%,0.901)"/><stop offset="100%" stop-color="hsla(52.3,63.9%,9.2%,0.901)"/></radialGradient><filter id="bm13g3" x="-30%" y="-30%" width="160%" height="160%"><feTurbulence type="fractalNoise" baseFrequency="0.0499" numOctaves="1" result="noise"/><feDisplacementMap in="SourceGraphic" in2="noise" scale="11.4" xChannelSelector="R" yChannelSelector="G" result="disp"/><feColorMatrix in="disp" type="hueRotate" values="71.8" result="hued"/><feColorMatrix in="hued" type="saturate" values="2.78" result="sat"/><feComponentTransfer in="sat" result="ctrans"><feFuncR type="gamma" amplitude="1" exponent="0.142" offset="0"/><feFuncG type="gamma" amplitude="1" exponent="1.952" offset="0"/><feFuncB type="gamma" amplitude="1" exponent="1.038" offset="0"/></feComponentTransfer><feDiffuseLighting in="ctrans" surfaceScale="6.0" diffuseConstant="2.56" result="diffuse"><feDistantLight azimuth="341.1" elevation="30.3"/></feDiffuseLighting><feComposite in="diffuse" in2="ctrans" operator="arithmetic" k1="1" k2="0" k3="0" k4="0" result="lit"/><feConvolveMatrix in="lit" order="3" kernelMatrix="-2 -1 0 -1 1 1 0 1 2" preserveAlpha="true" result="conv"/></filter></defs><rect width="1920" height="1080" fill="url(#bm13g1)"/><g filter="url(#bm13g3)" ><g transform="translate(0.00,0.00) rotate(304.46) scale(1.407,1.095)" fill="url(#bm13g2)" stroke="hsla(147.6,21.5%,89.8%,0.577)" stroke-width="39.04" opacity="0.683" style="mix-blend-mode:difference"><polygon points="0.00,-669.15 523.16,-417.21 652.37,148.90 290.33,602.89 -290.33,602.89 -652.37,148.90 -523.16,-417.21"/></g><g transform="translate(640.00,0.00) rotate(304.46) scale(1.407,1.095)" fill="url(#bm13g2)" stroke="hsla(147.6,21.5%,89.8%,0.577)" stroke-width="39.04" opacity="0.683" style="mix-blend-mode:difference"><polygon points="0.00,-669.15 523.16,-417.21 652.37,148.90 290.33,602.89 -290.33,602.89 -652.37,148.90 -523.16,-417.21"/></g><g transform="translate(1280.00,0.00) rotate(304.46) scale(1.407,1.095)" fill="url(#bm13g2)" stroke="hsla(147.6,21.5%,89.8%,0.577)" stroke-width="39.04" opacity="0.683" style="mix-blend-mode:difference"><polygon points="0.00,-669.15 523.16,-417.21 652.37,148.90 290.33,602.89 -290.33,602.89 -652.37,148.90 -523.16,-417.21"/></g><g transform="translate(1920.00,0.00) rotate(304.46) scale(1.407,1.095)" fill="url(#bm13g2)" stroke="hsla(147.6,21.5%,89.8%,0.577)" stroke-width="39.04" opacity="0.683" style="mix-blend-mode:difference"><polygon points="0.00,-669.15 523.16,-417.21 652.37,148.90 290.33,602.89 -290.33,602.89 -652.37,148.90 -523.16,-417.21"/></g><g transform="translate(0.00,540.00) rotate(304.46) scale(1.407,1.095)" fill="url(#bm13g2)" stroke="hsla(147.6,21.5%,89.8%,0.577)" stroke-width="39.04" opacity="0.683" style="mix-blend-mode:difference"><polygon points="0.00,-669.15 523.16,-417.21 652.37,148.90 290.33,602.89 -290.33,602.89 -652.37,148.90 -523.16,-417.21"/></g><g transform="translate(640.00,540.00) rotate(304.46) scale(1.407,1.095)" fill="url(#bm13g2)" stroke="hsla(147.6,21.5%,89.8%,0.577)" stroke-width="39.04" opacity="0.683" style="mix-blend-mode:difference"><polygon points="0.00,-669.15 523.16,-417.21 652.37,148.90 290.33,602.89 -290.33,602.89 -652.37,148.90 -523.16,-417.21"/></g><g transform="translate(1280.00,540.00) rotate(304.46) scale(1.407,1.095)" fill="url(#bm13g2)" stroke="hsla(147.6,21.5%,89.8%,0.577)" stroke-width="39.04" opacity="0.683" style="mix-blend-mode:difference"><polygon points="0.00,-669.15 523.16,-417.21 652.37,148.90 290.33,602.89 -290.33,602.89 -652.37,148.90 -523.16,-417.21"/></g><g transform="translate(1920.00,540.00) rotate(304.46) scale(1.407,1.095)" fill="url(#bm13g2)" stroke="hsla(147.6,21.5%,89.8%,0.577)" stroke-width="39.04" opacity="0.683" style="mix-blend-mode:difference"><polygon points="0.00,-669.15 523.16,-417.21 652.37,148.90 290.33,602.89 -290.33,602.89 -652.37,148.90 -523.16,-417.21"/></g><g transform="translate(0.00,1080.00) rotate(304.46) scale(1.407,1.095)" fill="url(#bm13g2)" stroke="hsla(147.6,21.5%,89.8%,0.577)" stroke-width="39.04" opacity="0.683" style="mix-blend-mode:difference"><polygon points="0.00,-669.15 523.16,-417.21 652.37,148.90 290.33,602.89 -290.33,602.89 -652.37,148.90 -523.16,-417.21"/></g><g transform="translate(640.00,1080.00) rotate(304.46) scale(1.407,1.095)" fill="url(#bm13g2)" stroke="hsla(147.6,21.5%,89.8%,0.577)" stroke-width="39.04" opacity="0.683" style="mix-blend-mode:difference"><polygon points="0.00,-669.15 523.16,-417.21 652.37,148.90 290.33,602.89 -290.33,602.89 -652.37,148.90 -523.16,-417.21"/></g><g transform="translate(1280.00,1080.00) rotate(304.46) scale(1.407,1.095)" fill="url(#bm13g2)" stroke="hsla(147.6,21.5%,89.8%,0.577)" stroke-width="39.04" opacity="0.683" style="mix-blend-mode:difference"><polygon points="0.00,-669.15 523.16,-417.21 652.37,148.90 290.33,602.89 -290.33,602.89 -652.37,148.90 -523.16,-417.21"/></g><g transform="translate(1920.00,1080.00) rotate(304.46) scale(1.407,1.095)" fill="url(#bm13g2)" stroke="hsla(147.6,21.5%,89.8%,0.577)" stroke-width="39.04" opacity="0.683" style="mix-blend-mode:difference"><polygon points="0.00,-669.15 523.16,-417.21 652.37,148.90 290.33,602.89 -290.33,602.89 -652.37,148.90 -523.16,-417.21"/></g></g><metadata><evolvesvg:genome xmlns:evolvesvg="https://evolvesvg">{"palette":[{"h":273.86968894218114,"s":52.27990469589096,"l":5},{"h":269.3271517187501,"s":81.3884406892894,"l":79.18812934101453},{"h":87.9062586047852,"s":77.56026019329143,"l":86.35152985410858},{"h":217.60235661308081,"s":48.65697382926916,"l":68.81531048799059},{"h":52.333220203893404,"s":63.86705331911897,"l":9.189232331158344},{"h":147.56530806000933,"s":21.531489373598774,"l":89.75752387878634}],"background":{"type":"linear","paletteIdx":0,"paletteIdx2":1,"angle":290.6972371757829},"layers":[{"type":"polygon","cx":0.38175354987638765,"cy":0.35220081726494723,"params":{"sides":7,"r":0.34851662014562956},"fill":{"type":"radial","paletteIdx":2,"paletteIdx2":4,"alpha":0.9005378807551506,"angle":296.10300962795463},"stroke":{"paletteIdx":5,"width":0.02033098421740411,"alpha":0.5770123891574084},"opacity":0.6830100053953786,"blendMode":"difference","transform":{"rotate":304.4597470066708,"scaleX":1.4071230725812702,"scaleY":1.0945102004954304},"arrangement":"grid","arrangementParams":{"nx":4,"ny":3},"convolve":{"type":"emboss"},"diffuseLight":{"azimuth":341.10793456214753,"elevation":30.289967137535978,"scale":5.9906453029092,"strength":2.561502979061986},"componentTransfer":{"rExp":0.1415849450470116,"gExp":1.9520420308596023,"bExp":1.0381750343862364},"colorShift":{"hueRotate":71.77613486830023,"saturate":2.7840561235693584},"displace":{"scale":11.393939137874668,"baseFreq":0.049883342849564916,"octaves":1}}]}</evolvesvg:genome></metadata></svg>