<svg viewBox="0 0 1920 1080" xmlns="http://www.w3.org/2000/svg" width="1920" height="1080" preserveAspectRatio="xMidYMid slice"><defs><linearGradient id="bm14g1" x1="32.32851320488016%" y1="96.77305372166656%" x2="67.67148679511983%" y2="3.2269462783334477%"><stop offset="0%" stop-color="hsla(222.9,71.2%,5.0%,1.000)"/><stop offset="100%" stop-color="hsla(286.7,98.9%,49.2%,1.000)"/></linearGradient><radialGradient id="bm14g2" cx="50%" cy="50%" r="50%"><stop offset="0%" stop-color="hsla(286.7,98.9%,49.2%,0.854)"/><stop offset="100%" stop-color="hsla(71.1,73.7%,26.1%,0.854)"/></radialGradient><filter id="bm14g3" x="-30%" y="-30%" width="160%" height="160%"><feMorphology in="SourceGraphic" operator="erode" radius="2.2 16.0" result="morph"/><feTurbulence type="fractalNoise" baseFrequency="0.0467" numOctaves="1" result="noise"/><feDisplacementMap in="morph" in2="noise" scale="18.1" xChannelSelector="R" yChannelSelector="G" result="disp"/><feColorMatrix in="disp" type="hueRotate" values="114.3" result="hued"/><feColorMatrix in="hued" type="saturate" values="3.04" result="sat"/><feComponentTransfer in="sat" result="ctrans"><feFuncR type="gamma" amplitude="1" exponent="0.100" offset="0"/><feFuncG type="gamma" amplitude="1" exponent="1.625" offset="0"/><feFuncB type="gamma" amplitude="1" exponent="1.105" offset="0"/></feComponentTransfer><feDiffuseLighting in="ctrans" surfaceScale="7.6" diffuseConstant="2.56" result="diffuse"><feDistantLight azimuth="351.6" elevation="32.2"/></feDiffuseLighting><feComposite in="diffuse" in2="ctrans" operator="arithmetic" k1="1" k2="0" k3="0" k4="0" result="lit"/><feConvolveMatrix in="lit" order="3" kernelMatrix="-2 -1 0 -1 1 1 0 1 2" preserveAlpha="true" result="conv"/></filter></defs><rect width="1920" height="1080" fill="url(#bm14g1)"/><g filter="url(#bm14g3)" ><g transform="translate(0.00,0.00) rotate(308.84) scale(1.366,0.921)" fill="url(#bm14g2)" stroke="hsla(127.5,61.2%,85.0%,0.714)" stroke-width="45.70" opacity="0.797" style="mix-blend-mode:difference"><polygon points="0.00,-698.76 546.31,-435.67 681.24,155.49 303.18,629.56 -303.18,629.56 -681.24,155.49 -546.31,-435.67"/></g><g transform="translate(640.00,0.00) rotate(308.84) scale(1.366,0.921)" fill="url(#bm14g2)" stroke="hsla(127.5,61.2%,85.0%,0.714)" stroke-width="45.70" opacity="0.797" style="mix-blend-mode:difference"><polygon points="0.00,-698.76 546.31,-435.67 681.24,155.49 303.18,629.56 -303.18,629.56 -681.24,155.49 -546.31,-435.67"/></g><g transform="translate(1280.00,0.00) rotate(308.84) scale(1.366,0.921)" fill="url(#bm14g2)" stroke="hsla(127.5,61.2%,85.0%,0.714)" stroke-width="45.70" opacity="0.797" style="mix-blend-mode:difference"><polygon points="0.00,-698.76 546.31,-435.67 681.24,155.49 303.18,629.56 -303.18,629.56 -681.24,155.49 -546.31,-435.67"/></g><g transform="translate(1920.00,0.00) rotate(308.84) scale(1.366,0.921)" fill="url(#bm14g2)" stroke="hsla(127.5,61.2%,85.0%,0.714)" stroke-width="45.70" opacity="0.797" style="mix-blend-mode:difference"><polygon points="0.00,-698.76 546.31,-435.67 681.24,155.49 303.18,629.56 -303.18,629.56 -681.24,155.49 -546.31,-435.67"/></g><g transform="translate(0.00,540.00) rotate(308.84) scale(1.366,0.921)" fill="url(#bm14g2)" stroke="hsla(127.5,61.2%,85.0%,0.714)" stroke-width="45.70" opacity="0.797" style="mix-blend-mode:difference"><polygon points="0.00,-698.76 546.31,-435.67 681.24,155.49 303.18,629.56 -303.18,629.56 -681.24,155.49 -546.31,-435.67"/></g><g transform="translate(640.00,540.00) rotate(308.84) scale(1.366,0.921)" fill="url(#bm14g2)" stroke="hsla(127.5,61.2%,85.0%,0.714)" stroke-width="45.70" opacity="0.797" style="mix-blend-mode:difference"><polygon points="0.00,-698.76 546.31,-435.67 681.24,155.49 303.18,629.56 -303.18,629.56 -681.24,155.49 -546.31,-435.67"/></g><g transform="translate(1280.00,540.00) rotate(308.84) scale(1.366,0.921)" fill="url(#bm14g2)" stroke="hsla(127.5,61.2%,85.0%,0.714)" stroke-width="45.70" opacity="0.797" style="mix-blend-mode:difference"><polygon points="0.00,-698.76 546.31,-435.67 681.24,155.49 303.18,629.56 -303.18,629.56 -681.24,155.49 -546.31,-435.67"/></g><g transform="translate(1920.00,540.00) rotate(308.84) scale(1.366,0.921)" fill="url(#bm14g2)" stroke="hsla(127.5,61.2%,85.0%,0.714)" stroke-width="45.70" opacity="0.797" style="mix-blend-mode:difference"><polygon points="0.00,-698.76 546.31,-435.67 681.24,155.49 303.18,629.56 -303.18,629.56 -681.24,155.49 -546.31,-435.67"/></g><g transform="translate(0.00,1080.00) rotate(308.84) scale(1.366,0.921)" fill="url(#bm14g2)" stroke="hsla(127.5,61.2%,85.0%,0.714)" stroke-width="45.70" opacity="0.797" style="mix-blend-mode:difference"><polygon points="0.00,-698.76 546.31,-435.67 681.24,155.49 303.18,629.56 -303.18,629.56 -681.24,155.49 -546.31,-435.67"/></g><g transform="translate(640.00,1080.00) rotate(308.84) scale(1.366,0.921)" fill="url(#bm14g2)" stroke="hsla(127.5,61.2%,85.0%,0.714)" stroke-width="45.70" opacity="0.797" style="mix-blend-mode:difference"><polygon points="0.00,-698.76 546.31,-435.67 681.24,155.49 303.18,629.56 -303.18,629.56 -681.24,155.49 -546.31,-435.67"/></g><g transform="translate(1280.00,1080.00) rotate(308.84) scale(1.366,0.921)" fill="url(#bm14g2)" stroke="hsla(127.5,61.2%,85.0%,0.714)" stroke-width="45.70" opacity="0.797" style="mix-blend-mode:difference"><polygon points="0.00,-698.76 546.31,-435.67 681.24,155.49 303.18,629.56 -303.18,629.56 -681.24,155.49 -546.31,-435.67"/></g><g transform="translate(1920.00,1080.00) rotate(308.84) scale(1.366,0.921)" fill="url(#bm14g2)" stroke="hsla(127.5,61.2%,85.0%,0.714)" stroke-width="45.70" opacity="0.797" style="mix-blend-mode:difference"><polygon points="0.00,-698.76 546.31,-435.67 681.24,155.49 303.18,629.56 -303.18,629.56 -681.24,155.49 -546.31,-435.67"/></g></g><metadata><evolvesvg:genome xmlns:evolvesvg="https://evolvesvg">{"palette":[{"h":222.88536298407598,"s":71.21377727030546,"l":5},{"h":286.7290048824051,"s":98.85829955149894,"l":49.22148542052835},{"h":127.54278594287581,"s":61.224833097747336,"l":85.04626163688056},{"h":186.81474867228974,"s":39.847673383282576,"l":77.56408049585337},{"h":71.11544549577275,"s":73.74816439482737,"l":26.116860747908675},{"h":168.24049739670465,"s":11.551734311003429,"l":79.05399134316266}],"background":{"type":"linear","paletteIdx":0,"paletteIdx2":1,"angle":290.6972371757829},"layers":[{"type":"polygon","cx":0.28978653114115777,"cy":0.41158250233271987,"params":{"sides":7,"r":0.3639369863844032},"fill":{"type":"radial","paletteIdx":1,"paletteIdx2":4,"alpha":0.8535758241379908,"angle":341.2064816567089},"stroke":{"paletteIdx":2,"width":0.023800828530706655,"alpha":0.7144406899418435},"opacity":0.7970412805501071,"blendMode":"difference","transform":{"rotate":308.8426759410006,"scaleX":1.3658220833330477,"scaleY":0.9206845738887698},"arrangement":"grid","arrangementParams":{"nx":4,"ny":3},"convolve":{"type":"emboss"},"diffuseLight":{"azimuth":351.61671249732626,"elevation":32.1737182706706,"scale":7.574443909916735,"strength":2.555188101118487},"componentTransfer":{"rExp":0.1,"gExp":1.625247098388269,"bExp":1.1048493570599676},"colorShift":{"hueRotate":114.28843505142805,"saturate":3.0444345201756207},"displace":{"scale":18.14872444690448,"baseFreq":0.046722132422291424,"octaves":1},"morph":{"operator":"erode","radiusX":2.178868382691318,"radiusY":15.98139556505025}}]}</evolvesvg:genome></metadata></svg>